<mxfile host="65bd71144e">
    <diagram id="pMU9z7hy9Qi7VdzdfBaV" name="P1">
        <mxGraphModel dx="1194" dy="660" grid="1" gridSize="10" guides="1" tooltips="1" connect="1" arrows="1" fold="1" page="1" pageScale="1" pageWidth="827" pageHeight="1169" math="0" shadow="0">
            <root>
                <mxCell id="0"/>
                <mxCell id="1" parent="0"/>
                <mxCell id="13" style="edgeStyle=none;html=1;exitX=0.75;exitY=0;exitDx=0;exitDy=0;entryX=0.5;entryY=1;entryDx=0;entryDy=0;strokeWidth=1;fontSize=19;endArrow=none;endFill=0;" parent="1" source="2" target="5" edge="1">
                    <mxGeometry relative="1" as="geometry"/>
                </mxCell>
                <mxCell id="14" style="edgeStyle=none;html=1;exitX=0;exitY=0;exitDx=0;exitDy=0;strokeWidth=1;fontSize=19;endArrow=none;endFill=0;" parent="1" source="2" target="4" edge="1">
                    <mxGeometry relative="1" as="geometry"/>
                </mxCell>
                <mxCell id="35" style="edgeStyle=none;html=1;entryX=0.5;entryY=0;entryDx=0;entryDy=0;strokeWidth=1;fontSize=19;endArrow=none;endFill=0;" parent="1" source="2" target="34" edge="1">
                    <mxGeometry relative="1" as="geometry"/>
                </mxCell>
                <mxCell id="37" value="M" style="edgeLabel;html=1;align=center;verticalAlign=middle;resizable=0;points=[];fontSize=19;" parent="35" vertex="1" connectable="0">
                    <mxGeometry x="-0.7662" y="-1" relative="1" as="geometry">
                        <mxPoint as="offset"/>
                    </mxGeometry>
                </mxCell>
                <mxCell id="46" style="edgeStyle=none;html=1;entryX=1;entryY=0.5;entryDx=0;entryDy=0;strokeWidth=1;fontSize=19;endArrow=none;endFill=0;" parent="1" source="2" target="45" edge="1">
                    <mxGeometry relative="1" as="geometry"/>
                </mxCell>
                <mxCell id="48" value="M" style="edgeLabel;html=1;align=center;verticalAlign=middle;resizable=0;points=[];fontSize=19;" parent="46" vertex="1" connectable="0">
                    <mxGeometry x="-0.7878" y="2" relative="1" as="geometry">
                        <mxPoint y="-1" as="offset"/>
                    </mxGeometry>
                </mxCell>
                <mxCell id="2" value="&lt;font style=&quot;font-size: 19px;&quot;&gt;Musician&lt;/font&gt;" style="rounded=0;whiteSpace=wrap;html=1;strokeWidth=1;" parent="1" vertex="1">
                    <mxGeometry x="769.9999999999999" y="420" width="120" height="60" as="geometry"/>
                </mxCell>
                <mxCell id="4" value="&lt;font style=&quot;font-size: 19px;&quot;&gt;Name&lt;/font&gt;" style="ellipse;whiteSpace=wrap;html=1;fontSize=19;strokeWidth=1;" parent="1" vertex="1">
                    <mxGeometry x="680" y="310" width="100" height="60" as="geometry"/>
                </mxCell>
                <mxCell id="5" value="&lt;font style=&quot;font-size: 19px;&quot;&gt;&lt;u&gt;ID&lt;/u&gt;&lt;/font&gt;" style="ellipse;whiteSpace=wrap;html=1;fontSize=19;strokeWidth=1;" parent="1" vertex="1">
                    <mxGeometry x="810" y="310" width="100" height="60" as="geometry"/>
                </mxCell>
                <mxCell id="9" style="edgeStyle=none;html=1;exitX=1;exitY=0;exitDx=0;exitDy=0;entryX=0.332;entryY=0.987;entryDx=0;entryDy=0;entryPerimeter=0;fontSize=19;endArrow=none;endFill=0;strokeWidth=1;" parent="1" source="6" target="8" edge="1">
                    <mxGeometry relative="1" as="geometry"/>
                </mxCell>
                <mxCell id="10" style="edgeStyle=none;html=1;exitX=0;exitY=0;exitDx=0;exitDy=0;entryX=0.5;entryY=1;entryDx=0;entryDy=0;fontSize=19;endArrow=none;endFill=0;strokeWidth=1;" parent="1" source="6" target="7" edge="1">
                    <mxGeometry relative="1" as="geometry"/>
                </mxCell>
                <mxCell id="16" style="edgeStyle=none;html=1;exitX=0.5;exitY=1;exitDx=0;exitDy=0;entryX=1;entryY=0;entryDx=0;entryDy=0;strokeWidth=1;fontSize=19;endArrow=none;endFill=0;" parent="1" source="6" target="2" edge="1">
                    <mxGeometry relative="1" as="geometry"/>
                </mxCell>
                <mxCell id="6" value="&lt;font style=&quot;font-size: 19px;&quot;&gt;Address&lt;/font&gt;" style="ellipse;whiteSpace=wrap;html=1;fontSize=19;strokeWidth=1;" parent="1" vertex="1">
                    <mxGeometry x="937" y="310" width="100" height="60" as="geometry"/>
                </mxCell>
                <mxCell id="7" value="&lt;font style=&quot;font-size: 19px;&quot;&gt;Street&lt;/font&gt;" style="ellipse;whiteSpace=wrap;html=1;fontSize=19;strokeWidth=1;" parent="1" vertex="1">
                    <mxGeometry x="880" y="190" width="100" height="60" as="geometry"/>
                </mxCell>
                <mxCell id="8" value="&lt;font style=&quot;font-size: 19px;&quot;&gt;City&lt;/font&gt;" style="ellipse;whiteSpace=wrap;html=1;fontSize=19;strokeWidth=1;" parent="1" vertex="1">
                    <mxGeometry x="1010" y="190" width="100" height="60" as="geometry"/>
                </mxCell>
                <mxCell id="12" style="edgeStyle=none;html=1;entryX=1;entryY=0.5;entryDx=0;entryDy=0;strokeWidth=1;fontSize=19;endArrow=none;endFill=0;" parent="1" source="11" target="2" edge="1">
                    <mxGeometry relative="1" as="geometry"/>
                </mxCell>
                <mxCell id="11" value="&lt;font style=&quot;font-size: 19px;&quot;&gt;Phone&lt;/font&gt;" style="ellipse;whiteSpace=wrap;html=1;fontSize=19;strokeWidth=1;" parent="1" vertex="1">
                    <mxGeometry x="937" y="420" width="100" height="60" as="geometry"/>
                </mxCell>
                <mxCell id="19" style="edgeStyle=none;html=1;exitX=0.5;exitY=1;exitDx=0;exitDy=0;entryX=0.5;entryY=0;entryDx=0;entryDy=0;strokeWidth=1;fontSize=19;endArrow=none;endFill=0;" parent="1" source="17" target="18" edge="1">
                    <mxGeometry relative="1" as="geometry"/>
                </mxCell>
                <mxCell id="17" value="&lt;font style=&quot;font-size: 19px;&quot;&gt;Instrument&lt;/font&gt;" style="rounded=0;whiteSpace=wrap;html=1;strokeWidth=1;" parent="1" vertex="1">
                    <mxGeometry x="768.9999999999999" y="785" width="120" height="60" as="geometry"/>
                </mxCell>
                <mxCell id="18" value="&lt;font style=&quot;font-size: 19px;&quot;&gt;&lt;u&gt;Name&lt;/u&gt;&lt;/font&gt;" style="ellipse;whiteSpace=wrap;html=1;fontSize=19;strokeWidth=1;" parent="1" vertex="1">
                    <mxGeometry x="779" y="890" width="100" height="60" as="geometry"/>
                </mxCell>
                <mxCell id="21" style="edgeStyle=none;html=1;exitX=0.5;exitY=0;exitDx=0;exitDy=0;entryX=1;entryY=1;entryDx=0;entryDy=0;strokeWidth=1;fontSize=19;endArrow=none;endFill=0;" parent="1" source="20" target="17" edge="1">
                    <mxGeometry relative="1" as="geometry"/>
                </mxCell>
                <mxCell id="20" value="&lt;font style=&quot;font-size: 19px;&quot;&gt;M_Key&lt;/font&gt;" style="ellipse;whiteSpace=wrap;html=1;fontSize=19;strokeWidth=1;" parent="1" vertex="1">
                    <mxGeometry x="929" y="890" width="100" height="60" as="geometry"/>
                </mxCell>
                <mxCell id="24" value="" style="edgeStyle=none;html=1;strokeWidth=1;fontSize=19;endArrow=none;endFill=0;" parent="1" source="22" target="23" edge="1">
                    <mxGeometry relative="1" as="geometry"/>
                </mxCell>
                <mxCell id="26" style="edgeStyle=none;html=1;exitX=0;exitY=1;exitDx=0;exitDy=0;entryX=0.5;entryY=0;entryDx=0;entryDy=0;strokeWidth=1;fontSize=19;endArrow=none;endFill=0;" parent="1" source="22" target="25" edge="1">
                    <mxGeometry relative="1" as="geometry"/>
                </mxCell>
                <mxCell id="28" style="edgeStyle=none;html=1;exitX=1;exitY=1;exitDx=0;exitDy=0;entryX=0.5;entryY=0;entryDx=0;entryDy=0;strokeWidth=1;fontSize=19;endArrow=none;endFill=0;" parent="1" source="22" target="27" edge="1">
                    <mxGeometry relative="1" as="geometry"/>
                </mxCell>
                <mxCell id="51" style="edgeStyle=none;shape=link;html=1;exitX=1;exitY=0;exitDx=0;exitDy=0;entryX=0;entryY=1;entryDx=0;entryDy=0;strokeWidth=1;fontSize=19;endArrow=none;endFill=0;" parent="1" source="22" target="50" edge="1">
                    <mxGeometry relative="1" as="geometry"/>
                </mxCell>
                <mxCell id="54" value="M" style="edgeLabel;html=1;align=center;verticalAlign=middle;resizable=0;points=[];fontSize=19;" parent="51" vertex="1" connectable="0">
                    <mxGeometry x="-0.7966" y="1" relative="1" as="geometry">
                        <mxPoint as="offset"/>
                    </mxGeometry>
                </mxCell>
                <mxCell id="22" value="&lt;font style=&quot;font-size: 19px;&quot;&gt;Album&lt;/font&gt;" style="rounded=0;whiteSpace=wrap;html=1;strokeWidth=1;" parent="1" vertex="1">
                    <mxGeometry x="269.9999999999999" y="785" width="120" height="60" as="geometry"/>
                </mxCell>
                <mxCell id="23" value="&lt;font style=&quot;font-size: 19px;&quot;&gt;&lt;u&gt;Title&lt;/u&gt;&lt;/font&gt;" style="ellipse;whiteSpace=wrap;html=1;fontSize=19;strokeWidth=1;" parent="1" vertex="1">
                    <mxGeometry x="280" y="900" width="100" height="60" as="geometry"/>
                </mxCell>
                <mxCell id="25" value="&lt;font style=&quot;font-size: 19px;&quot;&gt;CR_Date&lt;/font&gt;" style="ellipse;whiteSpace=wrap;html=1;fontSize=19;strokeWidth=1;" parent="1" vertex="1">
                    <mxGeometry x="140" y="900" width="100" height="60" as="geometry"/>
                </mxCell>
                <mxCell id="27" value="&lt;font style=&quot;font-size: 19px;&quot;&gt;Album_ID&lt;/font&gt;" style="ellipse;whiteSpace=wrap;html=1;fontSize=19;strokeWidth=1;" parent="1" vertex="1">
                    <mxGeometry x="410" y="900" width="100" height="60" as="geometry"/>
                </mxCell>
                <mxCell id="29" value="&lt;font style=&quot;font-size: 19px;&quot;&gt;Song&lt;/font&gt;" style="rounded=0;whiteSpace=wrap;html=1;strokeWidth=1;" parent="1" vertex="1">
                    <mxGeometry x="269.9999999999999" y="420" width="120" height="60" as="geometry"/>
                </mxCell>
                <mxCell id="32" style="edgeStyle=none;html=1;entryX=0.5;entryY=0;entryDx=0;entryDy=0;strokeWidth=1;fontSize=19;endArrow=none;endFill=0;" parent="1" source="30" target="29" edge="1">
                    <mxGeometry relative="1" as="geometry"/>
                </mxCell>
                <mxCell id="30" value="&lt;font style=&quot;font-size: 19px;&quot;&gt;&lt;u&gt;Title&lt;/u&gt;&lt;/font&gt;" style="ellipse;whiteSpace=wrap;html=1;fontSize=19;strokeWidth=1;" parent="1" vertex="1">
                    <mxGeometry x="280" y="310" width="100" height="60" as="geometry"/>
                </mxCell>
                <mxCell id="33" style="edgeStyle=none;html=1;entryX=0;entryY=0;entryDx=0;entryDy=0;strokeWidth=1;fontSize=19;endArrow=none;endFill=0;" parent="1" source="31" target="29" edge="1">
                    <mxGeometry relative="1" as="geometry"/>
                </mxCell>
                <mxCell id="31" value="&lt;font style=&quot;font-size: 19px;&quot;&gt;Author&lt;/font&gt;" style="ellipse;whiteSpace=wrap;html=1;fontSize=19;strokeWidth=1;" parent="1" vertex="1">
                    <mxGeometry x="130" y="310" width="100" height="60" as="geometry"/>
                </mxCell>
                <mxCell id="36" value="" style="edgeStyle=none;html=1;strokeWidth=1;fontSize=19;endArrow=none;endFill=0;" parent="1" source="34" target="17" edge="1">
                    <mxGeometry relative="1" as="geometry"/>
                </mxCell>
                <mxCell id="38" value="M" style="edgeLabel;html=1;align=center;verticalAlign=middle;resizable=0;points=[];fontSize=19;" parent="36" vertex="1" connectable="0">
                    <mxGeometry x="0.605" y="-1" relative="1" as="geometry">
                        <mxPoint as="offset"/>
                    </mxGeometry>
                </mxCell>
                <mxCell id="34" value="Play" style="rhombus;whiteSpace=wrap;html=1;strokeWidth=1;fontSize=19;" parent="1" vertex="1">
                    <mxGeometry x="775" y="580" width="110" height="110" as="geometry"/>
                </mxCell>
                <mxCell id="41" style="edgeStyle=none;html=1;entryX=0.5;entryY=1;entryDx=0;entryDy=0;strokeWidth=1;fontSize=19;endArrow=none;endFill=0;" parent="1" source="40" target="29" edge="1">
                    <mxGeometry relative="1" as="geometry"/>
                </mxCell>
                <mxCell id="44" value="M" style="edgeLabel;html=1;align=center;verticalAlign=middle;resizable=0;points=[];fontSize=19;" parent="41" vertex="1" connectable="0">
                    <mxGeometry x="0.6738" y="3" relative="1" as="geometry">
                        <mxPoint x="2" as="offset"/>
                    </mxGeometry>
                </mxCell>
                <mxCell id="42" style="edgeStyle=none;html=1;entryX=0.5;entryY=0;entryDx=0;entryDy=0;strokeWidth=1;fontSize=19;endArrow=none;endFill=0;shape=link;" parent="1" source="40" target="22" edge="1">
                    <mxGeometry relative="1" as="geometry"/>
                </mxCell>
                <mxCell id="43" value="1" style="edgeLabel;html=1;align=center;verticalAlign=middle;resizable=0;points=[];fontSize=19;" parent="42" vertex="1" connectable="0">
                    <mxGeometry x="0.5848" relative="1" as="geometry">
                        <mxPoint x="-1" as="offset"/>
                    </mxGeometry>
                </mxCell>
                <mxCell id="40" value="Has" style="rhombus;whiteSpace=wrap;html=1;strokeWidth=1;fontSize=19;" parent="1" vertex="1">
                    <mxGeometry x="275" y="580" width="110" height="110" as="geometry"/>
                </mxCell>
                <mxCell id="47" style="edgeStyle=none;html=1;entryX=1;entryY=0.5;entryDx=0;entryDy=0;strokeWidth=1;fontSize=19;endArrow=none;endFill=0;shape=link;" parent="1" source="45" target="29" edge="1">
                    <mxGeometry relative="1" as="geometry"/>
                </mxCell>
                <mxCell id="49" value="M" style="edgeLabel;html=1;align=center;verticalAlign=middle;resizable=0;points=[];fontSize=19;" parent="47" vertex="1" connectable="0">
                    <mxGeometry x="0.661" y="4" relative="1" as="geometry">
                        <mxPoint y="-3" as="offset"/>
                    </mxGeometry>
                </mxCell>
                <mxCell id="45" value="Perform" style="rhombus;whiteSpace=wrap;html=1;strokeWidth=1;fontSize=19;" parent="1" vertex="1">
                    <mxGeometry x="520" y="395" width="110" height="110" as="geometry"/>
                </mxCell>
                <mxCell id="52" style="edgeStyle=none;html=1;exitX=1;exitY=0;exitDx=0;exitDy=0;entryX=0;entryY=1;entryDx=0;entryDy=0;strokeWidth=1;fontSize=19;endArrow=none;endFill=0;" parent="1" source="50" target="2" edge="1">
                    <mxGeometry relative="1" as="geometry"/>
                </mxCell>
                <mxCell id="53" value="1" style="edgeLabel;html=1;align=center;verticalAlign=middle;resizable=0;points=[];fontSize=19;" parent="52" vertex="1" connectable="0">
                    <mxGeometry x="0.727" y="2" relative="1" as="geometry">
                        <mxPoint as="offset"/>
                    </mxGeometry>
                </mxCell>
                <mxCell id="50" value="Produce" style="rhombus;whiteSpace=wrap;html=1;strokeWidth=1;fontSize=19;" parent="1" vertex="1">
                    <mxGeometry x="520" y="580" width="110" height="110" as="geometry"/>
                </mxCell>
            </root>
        </mxGraphModel>
    </diagram>
    <diagram id="TpKFAOalqEDYuCbg6pVU" name="P2">
        <mxGraphModel dx="1339" dy="629" grid="1" gridSize="10" guides="1" tooltips="1" connect="1" arrows="1" fold="1" page="1" pageScale="1" pageWidth="827" pageHeight="1169" math="0" shadow="0">
            <root>
                <mxCell id="0"/>
                <mxCell id="1" parent="0"/>
                <mxCell id="JnSAEwc62Vyu8IdE_g9I-34" style="edgeStyle=none;shape=link;html=1;entryX=0.5;entryY=0;entryDx=0;entryDy=0;fontSize=16;endArrow=none;endFill=0;" parent="1" source="bCZew0Ng-TMMtmYPJigj-6" target="JnSAEwc62Vyu8IdE_g9I-33" edge="1">
                    <mxGeometry relative="1" as="geometry"/>
                </mxCell>
                <mxCell id="JnSAEwc62Vyu8IdE_g9I-36" value="1" style="edgeLabel;html=1;align=center;verticalAlign=middle;resizable=0;points=[];fontSize=16;" parent="JnSAEwc62Vyu8IdE_g9I-34" vertex="1" connectable="0">
                    <mxGeometry x="-0.6998" relative="1" as="geometry">
                        <mxPoint as="offset"/>
                    </mxGeometry>
                </mxCell>
                <mxCell id="bCZew0Ng-TMMtmYPJigj-6" value="&lt;font style=&quot;font-size: 19px;&quot;&gt;Sales Office&lt;/font&gt;" style="rounded=0;whiteSpace=wrap;html=1;strokeWidth=1;" parent="1" vertex="1">
                    <mxGeometry x="869.9999999999999" y="300" width="120" height="60" as="geometry"/>
                </mxCell>
                <mxCell id="JnSAEwc62Vyu8IdE_g9I-2" style="edgeStyle=none;html=1;entryX=0.25;entryY=0;entryDx=0;entryDy=0;endArrow=none;endFill=0;rounded=0;" parent="1" source="bCZew0Ng-TMMtmYPJigj-8" target="bCZew0Ng-TMMtmYPJigj-6" edge="1">
                    <mxGeometry relative="1" as="geometry"/>
                </mxCell>
                <mxCell id="bCZew0Ng-TMMtmYPJigj-8" value="Location" style="ellipse;whiteSpace=wrap;html=1;fontSize=19;strokeWidth=1;rounded=0;" parent="1" vertex="1">
                    <mxGeometry x="810" y="180" width="100" height="60" as="geometry"/>
                </mxCell>
                <mxCell id="JnSAEwc62Vyu8IdE_g9I-28" value="" style="edgeStyle=none;html=1;endArrow=none;endFill=0;" parent="1" source="bCZew0Ng-TMMtmYPJigj-10" target="bCZew0Ng-TMMtmYPJigj-6" edge="1">
                    <mxGeometry relative="1" as="geometry"/>
                </mxCell>
                <mxCell id="JnSAEwc62Vyu8IdE_g9I-32" value="1" style="edgeLabel;html=1;align=center;verticalAlign=middle;resizable=0;points=[];fontSize=16;" parent="JnSAEwc62Vyu8IdE_g9I-28" vertex="1" connectable="0">
                    <mxGeometry x="0.5865" y="1" relative="1" as="geometry">
                        <mxPoint as="offset"/>
                    </mxGeometry>
                </mxCell>
                <mxCell id="JnSAEwc62Vyu8IdE_g9I-29" value="" style="edgeStyle=none;html=1;endArrow=none;endFill=0;shape=link;" parent="1" source="bCZew0Ng-TMMtmYPJigj-10" target="JnSAEwc62Vyu8IdE_g9I-4" edge="1">
                    <mxGeometry relative="1" as="geometry"/>
                </mxCell>
                <mxCell id="JnSAEwc62Vyu8IdE_g9I-31" value="&lt;font style=&quot;font-size: 16px;&quot;&gt;M&lt;/font&gt;" style="edgeLabel;html=1;align=center;verticalAlign=middle;resizable=0;points=[];" parent="JnSAEwc62Vyu8IdE_g9I-29" vertex="1" connectable="0">
                    <mxGeometry x="0.3886" relative="1" as="geometry">
                        <mxPoint as="offset"/>
                    </mxGeometry>
                </mxCell>
                <mxCell id="bCZew0Ng-TMMtmYPJigj-10" value="Assigned" style="rhombus;whiteSpace=wrap;html=1;strokeWidth=1;fontSize=19;rounded=0;" parent="1" vertex="1">
                    <mxGeometry x="867.5" y="430" width="125" height="110" as="geometry"/>
                </mxCell>
                <mxCell id="JnSAEwc62Vyu8IdE_g9I-3" style="edgeStyle=none;html=1;entryX=0.75;entryY=0;entryDx=0;entryDy=0;endArrow=none;endFill=0;rounded=0;" parent="1" source="JnSAEwc62Vyu8IdE_g9I-1" target="bCZew0Ng-TMMtmYPJigj-6" edge="1">
                    <mxGeometry relative="1" as="geometry"/>
                </mxCell>
                <mxCell id="JnSAEwc62Vyu8IdE_g9I-1" value="&lt;u&gt;&lt;font style=&quot;font-size: 16px;&quot;&gt;Office_Number&lt;/font&gt;&lt;/u&gt;" style="ellipse;whiteSpace=wrap;html=1;fontSize=19;strokeWidth=1;rounded=0;" parent="1" vertex="1">
                    <mxGeometry x="967" y="180" width="133" height="60" as="geometry"/>
                </mxCell>
                <mxCell id="JnSAEwc62Vyu8IdE_g9I-4" value="&lt;font style=&quot;font-size: 19px;&quot;&gt;Employee&lt;br&gt;&lt;/font&gt;" style="rounded=0;whiteSpace=wrap;html=1;strokeWidth=1;" parent="1" vertex="1">
                    <mxGeometry x="869.9999999999999" y="610" width="120" height="60" as="geometry"/>
                </mxCell>
                <mxCell id="JnSAEwc62Vyu8IdE_g9I-8" style="edgeStyle=none;html=1;entryX=0.75;entryY=1;entryDx=0;entryDy=0;fontSize=16;endArrow=none;endFill=0;rounded=0;" parent="1" source="JnSAEwc62Vyu8IdE_g9I-5" target="JnSAEwc62Vyu8IdE_g9I-4" edge="1">
                    <mxGeometry relative="1" as="geometry"/>
                </mxCell>
                <mxCell id="JnSAEwc62Vyu8IdE_g9I-5" value="Employee_Name" style="ellipse;whiteSpace=wrap;html=1;fontSize=19;strokeWidth=1;rounded=0;" parent="1" vertex="1">
                    <mxGeometry x="967" y="745" width="163" height="60" as="geometry"/>
                </mxCell>
                <mxCell id="JnSAEwc62Vyu8IdE_g9I-7" style="edgeStyle=none;html=1;entryX=0.25;entryY=1;entryDx=0;entryDy=0;fontSize=16;endArrow=none;endFill=0;rounded=0;" parent="1" source="JnSAEwc62Vyu8IdE_g9I-6" target="JnSAEwc62Vyu8IdE_g9I-4" edge="1">
                    <mxGeometry relative="1" as="geometry"/>
                </mxCell>
                <mxCell id="JnSAEwc62Vyu8IdE_g9I-6" value="&lt;u&gt;Employee_ID&lt;/u&gt;" style="ellipse;whiteSpace=wrap;html=1;fontSize=19;strokeWidth=1;rounded=0;" parent="1" vertex="1">
                    <mxGeometry x="795" y="745" width="130" height="60" as="geometry"/>
                </mxCell>
                <mxCell id="JnSAEwc62Vyu8IdE_g9I-20" style="edgeStyle=none;html=1;exitX=0.25;exitY=0;exitDx=0;exitDy=0;entryX=0.5;entryY=1;entryDx=0;entryDy=0;endArrow=none;endFill=0;" parent="1" source="JnSAEwc62Vyu8IdE_g9I-9" target="JnSAEwc62Vyu8IdE_g9I-10" edge="1">
                    <mxGeometry relative="1" as="geometry"/>
                </mxCell>
                <mxCell id="JnSAEwc62Vyu8IdE_g9I-21" style="edgeStyle=none;html=1;exitX=0.75;exitY=0;exitDx=0;exitDy=0;entryX=0.5;entryY=1;entryDx=0;entryDy=0;endArrow=none;endFill=0;" parent="1" source="JnSAEwc62Vyu8IdE_g9I-9" target="JnSAEwc62Vyu8IdE_g9I-11" edge="1">
                    <mxGeometry relative="1" as="geometry"/>
                </mxCell>
                <mxCell id="JnSAEwc62Vyu8IdE_g9I-9" value="&lt;font style=&quot;font-size: 19px;&quot;&gt;Property&lt;/font&gt;" style="rounded=0;whiteSpace=wrap;html=1;strokeWidth=1;" parent="1" vertex="1">
                    <mxGeometry x="349.9999999999999" y="300" width="120" height="60" as="geometry"/>
                </mxCell>
                <mxCell id="JnSAEwc62Vyu8IdE_g9I-10" value="&lt;u&gt;Property_ID&lt;/u&gt;" style="ellipse;whiteSpace=wrap;html=1;fontSize=19;strokeWidth=1;rounded=0;" parent="1" vertex="1">
                    <mxGeometry x="240" y="180" width="130" height="60" as="geometry"/>
                </mxCell>
                <mxCell id="JnSAEwc62Vyu8IdE_g9I-11" value="Location" style="ellipse;whiteSpace=wrap;html=1;fontSize=19;strokeWidth=1;rounded=0;" parent="1" vertex="1">
                    <mxGeometry x="460" y="180" width="100" height="60" as="geometry"/>
                </mxCell>
                <mxCell id="JnSAEwc62Vyu8IdE_g9I-17" style="edgeStyle=none;html=1;fontSize=16;endArrow=none;endFill=0;rounded=0;" parent="1" source="JnSAEwc62Vyu8IdE_g9I-12" target="JnSAEwc62Vyu8IdE_g9I-11" edge="1">
                    <mxGeometry relative="1" as="geometry"/>
                </mxCell>
                <mxCell id="JnSAEwc62Vyu8IdE_g9I-12" value="State" style="ellipse;whiteSpace=wrap;html=1;fontSize=19;strokeWidth=1;rounded=0;" parent="1" vertex="1">
                    <mxGeometry x="570" y="40" width="100" height="60" as="geometry"/>
                </mxCell>
                <mxCell id="JnSAEwc62Vyu8IdE_g9I-19" style="edgeStyle=none;html=1;fontSize=16;endArrow=none;endFill=0;rounded=0;" parent="1" source="JnSAEwc62Vyu8IdE_g9I-13" target="JnSAEwc62Vyu8IdE_g9I-11" edge="1">
                    <mxGeometry relative="1" as="geometry"/>
                </mxCell>
                <mxCell id="JnSAEwc62Vyu8IdE_g9I-13" value="Address" style="ellipse;whiteSpace=wrap;html=1;fontSize=19;strokeWidth=1;rounded=0;" parent="1" vertex="1">
                    <mxGeometry x="350" y="40" width="100" height="60" as="geometry"/>
                </mxCell>
                <mxCell id="JnSAEwc62Vyu8IdE_g9I-18" style="edgeStyle=none;html=1;entryX=0.5;entryY=0;entryDx=0;entryDy=0;fontSize=16;endArrow=none;endFill=0;rounded=0;" parent="1" source="JnSAEwc62Vyu8IdE_g9I-14" target="JnSAEwc62Vyu8IdE_g9I-11" edge="1">
                    <mxGeometry relative="1" as="geometry"/>
                </mxCell>
                <mxCell id="JnSAEwc62Vyu8IdE_g9I-14" value="City" style="ellipse;whiteSpace=wrap;html=1;fontSize=19;strokeWidth=1;rounded=0;" parent="1" vertex="1">
                    <mxGeometry x="460" y="40" width="100" height="60" as="geometry"/>
                </mxCell>
                <mxCell id="JnSAEwc62Vyu8IdE_g9I-16" style="edgeStyle=none;html=1;entryX=1;entryY=0;entryDx=0;entryDy=0;fontSize=16;endArrow=none;endFill=0;rounded=0;" parent="1" source="JnSAEwc62Vyu8IdE_g9I-15" target="JnSAEwc62Vyu8IdE_g9I-11" edge="1">
                    <mxGeometry relative="1" as="geometry"/>
                </mxCell>
                <mxCell id="JnSAEwc62Vyu8IdE_g9I-15" value="Zip_Code" style="ellipse;whiteSpace=wrap;html=1;fontSize=19;strokeWidth=1;rounded=0;" parent="1" vertex="1">
                    <mxGeometry x="680" y="40" width="100" height="60" as="geometry"/>
                </mxCell>
                <mxCell id="JnSAEwc62Vyu8IdE_g9I-22" value="&lt;font style=&quot;font-size: 19px;&quot;&gt;Owner&lt;/font&gt;" style="rounded=0;whiteSpace=wrap;html=1;strokeWidth=1;" parent="1" vertex="1">
                    <mxGeometry x="349.9999999999999" y="610" width="120" height="60" as="geometry"/>
                </mxCell>
                <mxCell id="JnSAEwc62Vyu8IdE_g9I-26" style="edgeStyle=none;html=1;entryX=0.66;entryY=1.01;entryDx=0;entryDy=0;entryPerimeter=0;endArrow=none;endFill=0;" parent="1" source="JnSAEwc62Vyu8IdE_g9I-23" target="JnSAEwc62Vyu8IdE_g9I-22" edge="1">
                    <mxGeometry relative="1" as="geometry"/>
                </mxCell>
                <mxCell id="JnSAEwc62Vyu8IdE_g9I-23" value="&lt;u&gt;Owner_ID&lt;/u&gt;" style="ellipse;whiteSpace=wrap;html=1;fontSize=19;strokeWidth=1;rounded=0;" parent="1" vertex="1">
                    <mxGeometry x="450" y="745" width="100" height="60" as="geometry"/>
                </mxCell>
                <mxCell id="JnSAEwc62Vyu8IdE_g9I-25" style="edgeStyle=none;html=1;entryX=0.32;entryY=1.01;entryDx=0;entryDy=0;entryPerimeter=0;endArrow=none;endFill=0;exitX=0.5;exitY=0;exitDx=0;exitDy=0;" parent="1" source="JnSAEwc62Vyu8IdE_g9I-27" target="JnSAEwc62Vyu8IdE_g9I-22" edge="1">
                    <mxGeometry relative="1" as="geometry">
                        <mxPoint x="319.65194411372" y="747.432234539496" as="sourcePoint"/>
                    </mxGeometry>
                </mxCell>
                <mxCell id="JnSAEwc62Vyu8IdE_g9I-27" value="Owner_Name" style="ellipse;whiteSpace=wrap;html=1;fontSize=19;strokeWidth=1;rounded=0;" parent="1" vertex="1">
                    <mxGeometry x="230" y="745" width="130" height="60" as="geometry"/>
                </mxCell>
                <mxCell id="JnSAEwc62Vyu8IdE_g9I-35" style="edgeStyle=none;html=1;entryX=1;entryY=0;entryDx=0;entryDy=0;fontSize=16;endArrow=none;endFill=0;" parent="1" source="JnSAEwc62Vyu8IdE_g9I-33" target="JnSAEwc62Vyu8IdE_g9I-4" edge="1">
                    <mxGeometry relative="1" as="geometry"/>
                </mxCell>
                <mxCell id="JnSAEwc62Vyu8IdE_g9I-37" value="1" style="edgeLabel;html=1;align=center;verticalAlign=middle;resizable=0;points=[];fontSize=16;" parent="JnSAEwc62Vyu8IdE_g9I-35" vertex="1" connectable="0">
                    <mxGeometry x="0.7562" y="2" relative="1" as="geometry">
                        <mxPoint as="offset"/>
                    </mxGeometry>
                </mxCell>
                <mxCell id="JnSAEwc62Vyu8IdE_g9I-33" value="Manage" style="rhombus;whiteSpace=wrap;html=1;strokeWidth=1;fontSize=19;rounded=0;" parent="1" vertex="1">
                    <mxGeometry x="1060" y="430" width="125" height="110" as="geometry"/>
                </mxCell>
                <mxCell id="JnSAEwc62Vyu8IdE_g9I-39" style="edgeStyle=none;html=1;entryX=1;entryY=0.5;entryDx=0;entryDy=0;fontSize=16;endArrow=none;endFill=0;shape=link;" parent="1" source="JnSAEwc62Vyu8IdE_g9I-38" target="JnSAEwc62Vyu8IdE_g9I-9" edge="1">
                    <mxGeometry relative="1" as="geometry"/>
                </mxCell>
                <mxCell id="JnSAEwc62Vyu8IdE_g9I-41" value="M" style="edgeLabel;html=1;align=center;verticalAlign=middle;resizable=0;points=[];fontSize=16;" parent="JnSAEwc62Vyu8IdE_g9I-39" vertex="1" connectable="0">
                    <mxGeometry x="0.799" relative="1" as="geometry">
                        <mxPoint as="offset"/>
                    </mxGeometry>
                </mxCell>
                <mxCell id="JnSAEwc62Vyu8IdE_g9I-40" style="edgeStyle=none;html=1;entryX=0;entryY=0.5;entryDx=0;entryDy=0;fontSize=16;endArrow=none;endFill=0;" parent="1" source="JnSAEwc62Vyu8IdE_g9I-38" target="bCZew0Ng-TMMtmYPJigj-6" edge="1">
                    <mxGeometry relative="1" as="geometry"/>
                </mxCell>
                <mxCell id="JnSAEwc62Vyu8IdE_g9I-42" value="1" style="edgeLabel;html=1;align=center;verticalAlign=middle;resizable=0;points=[];fontSize=16;" parent="JnSAEwc62Vyu8IdE_g9I-40" vertex="1" connectable="0">
                    <mxGeometry x="0.7944" relative="1" as="geometry">
                        <mxPoint as="offset"/>
                    </mxGeometry>
                </mxCell>
                <mxCell id="JnSAEwc62Vyu8IdE_g9I-38" value="List" style="rhombus;whiteSpace=wrap;html=1;strokeWidth=1;fontSize=19;rounded=0;" parent="1" vertex="1">
                    <mxGeometry x="620" y="275" width="125" height="110" as="geometry"/>
                </mxCell>
                <mxCell id="JnSAEwc62Vyu8IdE_g9I-44" style="edgeStyle=none;html=1;entryX=0.5;entryY=1;entryDx=0;entryDy=0;fontSize=16;endArrow=none;endFill=0;" parent="1" source="JnSAEwc62Vyu8IdE_g9I-43" target="JnSAEwc62Vyu8IdE_g9I-9" edge="1">
                    <mxGeometry relative="1" as="geometry"/>
                </mxCell>
                <mxCell id="JnSAEwc62Vyu8IdE_g9I-47" value="M" style="edgeLabel;html=1;align=center;verticalAlign=middle;resizable=0;points=[];fontSize=16;" parent="JnSAEwc62Vyu8IdE_g9I-44" vertex="1" connectable="0">
                    <mxGeometry x="0.5865" y="3" relative="1" as="geometry">
                        <mxPoint as="offset"/>
                    </mxGeometry>
                </mxCell>
                <mxCell id="JnSAEwc62Vyu8IdE_g9I-45" style="edgeStyle=none;shape=link;html=1;entryX=0.5;entryY=0;entryDx=0;entryDy=0;fontSize=16;endArrow=none;endFill=0;" parent="1" source="JnSAEwc62Vyu8IdE_g9I-43" target="JnSAEwc62Vyu8IdE_g9I-22" edge="1">
                    <mxGeometry relative="1" as="geometry"/>
                </mxCell>
                <mxCell id="JnSAEwc62Vyu8IdE_g9I-46" value="M" style="edgeLabel;html=1;align=center;verticalAlign=middle;resizable=0;points=[];fontSize=16;" parent="JnSAEwc62Vyu8IdE_g9I-45" vertex="1" connectable="0">
                    <mxGeometry x="0.4662" y="1" relative="1" as="geometry">
                        <mxPoint as="offset"/>
                    </mxGeometry>
                </mxCell>
                <mxCell id="JnSAEwc62Vyu8IdE_g9I-48" style="edgeStyle=none;html=1;fontSize=16;endArrow=none;endFill=0;entryX=1;entryY=0.5;entryDx=0;entryDy=0;" parent="1" source="JnSAEwc62Vyu8IdE_g9I-43" target="JnSAEwc62Vyu8IdE_g9I-49" edge="1">
                    <mxGeometry relative="1" as="geometry">
                        <mxPoint x="220" y="485" as="targetPoint"/>
                    </mxGeometry>
                </mxCell>
                <mxCell id="JnSAEwc62Vyu8IdE_g9I-43" value="List" style="rhombus;whiteSpace=wrap;html=1;strokeWidth=1;fontSize=19;rounded=0;" parent="1" vertex="1">
                    <mxGeometry x="347.5" y="430" width="125" height="110" as="geometry"/>
                </mxCell>
                <mxCell id="JnSAEwc62Vyu8IdE_g9I-49" value="Percent" style="ellipse;whiteSpace=wrap;html=1;fontSize=19;strokeWidth=1;rounded=0;" parent="1" vertex="1">
                    <mxGeometry x="160" y="455" width="130" height="60" as="geometry"/>
                </mxCell>
            </root>
        </mxGraphModel>
    </diagram>
    <diagram id="f-SwxmxMtbpa6L164XuO" name="P3">
        <mxGraphModel dx="1781" dy="1829" grid="1" gridSize="10" guides="1" tooltips="1" connect="1" arrows="1" fold="1" page="1" pageScale="1" pageWidth="827" pageHeight="1169" math="0" shadow="0">
            <root>
                <mxCell id="0"/>
                <mxCell id="1" parent="0"/>
                <mxCell id="qD4Ts9vn-tP-Y1MfGwTO-3" value="&lt;font style=&quot;font-size: 18px;&quot;&gt;Problem 3 &lt;br&gt;&lt;/font&gt;&lt;blockquote style=&quot;margin: 0px 0px 0px 40px; border: none; padding: 0px; font-size: 18px;&quot;&gt;&lt;font style=&quot;font-size: 18px;&quot;&gt;• A General Hospital consists of a number of specialized wards. Each ward is described by&amp;nbsp; ward_id, Name&lt;br&gt; • The system records the following details about patients: Patient_id, name, Date_Of_Birth&lt;/font&gt;&lt;/blockquote&gt;&lt;blockquote style=&quot;margin: 0px 0px 0px 40px; border: none; padding: 0px; font-size: 18px;&quot;&gt;&lt;font style=&quot;font-size: 18px;&quot;&gt;• Consultants are described by Consultant_id, Name&lt;br&gt;• Each ward is under supervision of one nurse and a nurse may supervise only one ward.&amp;nbsp;&lt;br&gt; &lt;/font&gt;&lt;/blockquote&gt;&lt;blockquote style=&quot;margin: 0px 0px 0px 40px; border: none; padding: 0px; font-size: 18px;&quot;&gt;&lt;font style=&quot;font-size: 18px;&quot;&gt;•&amp;nbsp;A drug has code number, recommended dosage and more than one brand name&lt;br&gt;&lt;/font&gt;&lt;/blockquote&gt;&lt;blockquote style=&quot;margin: 0px 0px 0px 40px; border: none; padding: 0px; font-size: 18px;&quot;&gt;&lt;font style=&quot;font-size: 18px;&quot;&gt;• Data about the nurse is recorded as her name and her number and her address.&amp;nbsp;&lt;/font&gt;&lt;/blockquote&gt;&lt;blockquote style=&quot;margin: 0px 0px 0px 40px; border: none; padding: 0px; font-size: 18px;&quot;&gt;&lt;font style=&quot;font-size: 18px;&quot;&gt;• Nurse gives a patient a certain drug&amp;nbsp; with specified dosage at certain date and time.&lt;/font&gt;&lt;/blockquote&gt;&lt;blockquote style=&quot;margin: 0px 0px 0px 40px; border: none; padding: 0px; font-size: 18px;&quot;&gt;&lt;font style=&quot;font-size: 18px;&quot;&gt;• Each Nurse must serve in one ward and ward can have many nurses.&lt;br&gt;&lt;/font&gt;&lt;/blockquote&gt;&lt;blockquote style=&quot;margin: 0px 0px 0px 40px; border: none; padding: 0px; font-size: 18px;&quot;&gt;• Each ward may host more patients and each patient is hosted by only one ward.&lt;br&gt;&lt;/blockquote&gt;&lt;blockquote style=&quot;margin: 0px 0px 0px 40px; border: none; padding: 0px; font-size: 18px;&quot;&gt;• Each patient is assigned to one leading consultant but may be examined by other consultants,&amp;nbsp; if required.&amp;nbsp;&lt;/blockquote&gt;&lt;blockquote style=&quot;margin: 0px 0px 0px 40px; border: none; padding: 0px; font-size: 18px;&quot;&gt;&lt;font style=&quot;font-size: 18px;&quot;&gt;• Each consultant may be assigned zero or more patients and may examine zero or more patients.&lt;br&gt;&lt;/font&gt;&lt;/blockquote&gt;" style="text;whiteSpace=wrap;html=1;fontSize=16;" parent="1" vertex="1">
                    <mxGeometry x="80" y="-170" width="920" height="280" as="geometry"/>
                </mxCell>
                <mxCell id="9B4nKgWa5E8Fh8OOL9md-12" style="edgeStyle=none;html=1;exitX=0.75;exitY=0;exitDx=0;exitDy=0;entryX=0.5;entryY=1;entryDx=0;entryDy=0;fontSize=18;endArrow=none;endFill=0;" parent="1" source="9B4nKgWa5E8Fh8OOL9md-2" target="9B4nKgWa5E8Fh8OOL9md-11" edge="1">
                    <mxGeometry relative="1" as="geometry"/>
                </mxCell>
                <mxCell id="9B4nKgWa5E8Fh8OOL9md-13" style="edgeStyle=none;html=1;exitX=0.25;exitY=0;exitDx=0;exitDy=0;entryX=0.5;entryY=1;entryDx=0;entryDy=0;fontSize=18;endArrow=none;endFill=0;" parent="1" source="9B4nKgWa5E8Fh8OOL9md-2" target="9B4nKgWa5E8Fh8OOL9md-4" edge="1">
                    <mxGeometry relative="1" as="geometry"/>
                </mxCell>
                <mxCell id="gTyuBGzVv1nn4_24LGDJ-10" style="edgeStyle=none;html=1;exitX=1;exitY=1;exitDx=0;exitDy=0;fontSize=17;startArrow=none;startFill=0;endArrow=none;endFill=0;" parent="1" source="9B4nKgWa5E8Fh8OOL9md-2" target="gTyuBGzVv1nn4_24LGDJ-9" edge="1">
                    <mxGeometry relative="1" as="geometry"/>
                </mxCell>
                <mxCell id="gTyuBGzVv1nn4_24LGDJ-12" value="1" style="edgeLabel;html=1;align=center;verticalAlign=middle;resizable=0;points=[];fontSize=17;" parent="gTyuBGzVv1nn4_24LGDJ-10" vertex="1" connectable="0">
                    <mxGeometry x="-0.7138" y="-1" relative="1" as="geometry">
                        <mxPoint as="offset"/>
                    </mxGeometry>
                </mxCell>
                <mxCell id="9B4nKgWa5E8Fh8OOL9md-2" value="&lt;font style=&quot;font-size: 19px;&quot;&gt;Ward&lt;/font&gt;" style="rounded=0;whiteSpace=wrap;html=1;strokeWidth=1;" parent="1" vertex="1">
                    <mxGeometry x="429.9999999999999" y="300" width="120" height="60" as="geometry"/>
                </mxCell>
                <mxCell id="9B4nKgWa5E8Fh8OOL9md-4" value="&lt;u&gt;Ward_ID&lt;/u&gt;" style="ellipse;whiteSpace=wrap;html=1;fontSize=19;strokeWidth=1;rounded=0;" parent="1" vertex="1">
                    <mxGeometry x="370" y="180" width="100" height="60" as="geometry"/>
                </mxCell>
                <mxCell id="9B4nKgWa5E8Fh8OOL9md-11" value="Name" style="ellipse;whiteSpace=wrap;html=1;fontSize=19;strokeWidth=1;rounded=0;" parent="1" vertex="1">
                    <mxGeometry x="526" y="180" width="100" height="60" as="geometry"/>
                </mxCell>
                <mxCell id="0l42mQMv9FSP3d1RYAwH-2" style="edgeStyle=none;html=1;exitX=0.75;exitY=1;exitDx=0;exitDy=0;entryX=0.5;entryY=0;entryDx=0;entryDy=0;fontSize=18;endArrow=none;endFill=0;" parent="1" source="vmyh9sjizWj1JWr0cyY4-1" target="0l42mQMv9FSP3d1RYAwH-1" edge="1">
                    <mxGeometry relative="1" as="geometry"/>
                </mxCell>
                <mxCell id="0l42mQMv9FSP3d1RYAwH-4" style="edgeStyle=none;html=1;entryX=0;entryY=0.5;entryDx=0;entryDy=0;fontSize=18;endArrow=none;endFill=0;" parent="1" source="vmyh9sjizWj1JWr0cyY4-1" target="0l42mQMv9FSP3d1RYAwH-3" edge="1">
                    <mxGeometry relative="1" as="geometry"/>
                </mxCell>
                <mxCell id="vmyh9sjizWj1JWr0cyY4-1" value="&lt;font style=&quot;font-size: 19px;&quot;&gt;Patient&lt;/font&gt;" style="rounded=0;whiteSpace=wrap;html=1;strokeWidth=1;" parent="1" vertex="1">
                    <mxGeometry x="819.9999999999999" y="670" width="120" height="60" as="geometry"/>
                </mxCell>
                <mxCell id="vmyh9sjizWj1JWr0cyY4-3" style="edgeStyle=none;html=1;entryX=0.25;entryY=1;entryDx=0;entryDy=0;fontSize=18;endArrow=none;endFill=0;" parent="1" source="vmyh9sjizWj1JWr0cyY4-2" target="vmyh9sjizWj1JWr0cyY4-1" edge="1">
                    <mxGeometry relative="1" as="geometry"/>
                </mxCell>
                <mxCell id="vmyh9sjizWj1JWr0cyY4-2" value="&lt;span style=&quot;text-align: left;&quot;&gt;&lt;u&gt;Patient_ID&lt;/u&gt;&lt;/span&gt;" style="ellipse;whiteSpace=wrap;html=1;fontSize=19;strokeWidth=1;rounded=0;" parent="1" vertex="1">
                    <mxGeometry x="755" y="800" width="110" height="60" as="geometry"/>
                </mxCell>
                <mxCell id="0l42mQMv9FSP3d1RYAwH-1" value="&lt;div style=&quot;text-align: left;&quot;&gt;&lt;span style=&quot;background-color: initial;&quot;&gt;Date_of_Birth&lt;/span&gt;&lt;/div&gt;" style="ellipse;whiteSpace=wrap;html=1;fontSize=19;strokeWidth=1;rounded=0;" parent="1" vertex="1">
                    <mxGeometry x="910" y="800" width="140" height="60" as="geometry"/>
                </mxCell>
                <mxCell id="0l42mQMv9FSP3d1RYAwH-3" value="&lt;div style=&quot;text-align: left;&quot;&gt;&lt;span style=&quot;background-color: initial;&quot;&gt;Name&lt;/span&gt;&lt;/div&gt;" style="ellipse;whiteSpace=wrap;html=1;fontSize=19;strokeWidth=1;rounded=0;" parent="1" vertex="1">
                    <mxGeometry x="1050" y="670" width="100" height="60" as="geometry"/>
                </mxCell>
                <mxCell id="c7gvKn73T0Td2fXNEq2t-1" style="edgeStyle=none;html=1;entryX=0.5;entryY=0;entryDx=0;entryDy=0;endArrow=none;endFill=0;" parent="1" source="0l42mQMv9FSP3d1RYAwH-5" target="c7gvKn73T0Td2fXNEq2t-2" edge="1">
                    <mxGeometry relative="1" as="geometry">
                        <mxPoint x="1110" y="490" as="targetPoint"/>
                    </mxGeometry>
                </mxCell>
                <mxCell id="c7gvKn73T0Td2fXNEq2t-5" value="M" style="edgeLabel;html=1;align=center;verticalAlign=middle;resizable=0;points=[];fontSize=17;" parent="c7gvKn73T0Td2fXNEq2t-1" vertex="1" connectable="0">
                    <mxGeometry x="-0.7642" y="-1" relative="1" as="geometry">
                        <mxPoint x="5" as="offset"/>
                    </mxGeometry>
                </mxCell>
                <mxCell id="0l42mQMv9FSP3d1RYAwH-5" value="&lt;font style=&quot;font-size: 19px;&quot;&gt;Consultant&lt;/font&gt;" style="rounded=0;whiteSpace=wrap;html=1;strokeWidth=1;" parent="1" vertex="1">
                    <mxGeometry x="820" y="300" width="120" height="60" as="geometry"/>
                </mxCell>
                <mxCell id="0l42mQMv9FSP3d1RYAwH-8" style="edgeStyle=none;html=1;entryX=0.75;entryY=0;entryDx=0;entryDy=0;fontSize=18;endArrow=none;endFill=0;" parent="1" source="0l42mQMv9FSP3d1RYAwH-6" target="0l42mQMv9FSP3d1RYAwH-5" edge="1">
                    <mxGeometry relative="1" as="geometry"/>
                </mxCell>
                <mxCell id="0l42mQMv9FSP3d1RYAwH-6" value="Name" style="ellipse;whiteSpace=wrap;html=1;fontSize=19;strokeWidth=1;rounded=0;" parent="1" vertex="1">
                    <mxGeometry x="870" y="180" width="100" height="60" as="geometry"/>
                </mxCell>
                <mxCell id="0l42mQMv9FSP3d1RYAwH-9" style="edgeStyle=none;html=1;entryX=0.25;entryY=0;entryDx=0;entryDy=0;fontSize=18;endArrow=none;endFill=0;" parent="1" source="0l42mQMv9FSP3d1RYAwH-7" target="0l42mQMv9FSP3d1RYAwH-5" edge="1">
                    <mxGeometry relative="1" as="geometry"/>
                </mxCell>
                <mxCell id="0l42mQMv9FSP3d1RYAwH-7" value="&lt;u&gt;Consultant_ID&lt;/u&gt;" style="ellipse;whiteSpace=wrap;html=1;fontSize=19;strokeWidth=1;rounded=0;" parent="1" vertex="1">
                    <mxGeometry x="680" y="180" width="140" height="60" as="geometry"/>
                </mxCell>
                <mxCell id="0l42mQMv9FSP3d1RYAwH-17" style="edgeStyle=none;html=1;exitX=0;exitY=1;exitDx=0;exitDy=0;entryX=1;entryY=0;entryDx=0;entryDy=0;fontSize=18;endArrow=none;endFill=0;" parent="1" source="0l42mQMv9FSP3d1RYAwH-10" target="0l42mQMv9FSP3d1RYAwH-16" edge="1">
                    <mxGeometry relative="1" as="geometry"/>
                </mxCell>
                <mxCell id="0l42mQMv9FSP3d1RYAwH-19" style="edgeStyle=none;html=1;entryX=0.5;entryY=0;entryDx=0;entryDy=0;fontSize=18;endArrow=none;endFill=0;" parent="1" source="0l42mQMv9FSP3d1RYAwH-10" target="0l42mQMv9FSP3d1RYAwH-18" edge="1">
                    <mxGeometry relative="1" as="geometry"/>
                </mxCell>
                <mxCell id="0l42mQMv9FSP3d1RYAwH-22" style="edgeStyle=none;html=1;exitX=1;exitY=1;exitDx=0;exitDy=0;entryX=0.5;entryY=0;entryDx=0;entryDy=0;fontSize=18;endArrow=none;endFill=0;" parent="1" source="0l42mQMv9FSP3d1RYAwH-10" target="0l42mQMv9FSP3d1RYAwH-21" edge="1">
                    <mxGeometry relative="1" as="geometry"/>
                </mxCell>
                <mxCell id="WeDCFjo-PFTkXxU_heEy-4" style="edgeStyle=none;html=1;entryX=0;entryY=1;entryDx=0;entryDy=0;endArrow=none;endFill=0;" parent="1" source="0l42mQMv9FSP3d1RYAwH-10" target="WeDCFjo-PFTkXxU_heEy-1" edge="1">
                    <mxGeometry relative="1" as="geometry"/>
                </mxCell>
                <mxCell id="0l42mQMv9FSP3d1RYAwH-10" value="&lt;font style=&quot;font-size: 19px;&quot;&gt;Drug&lt;/font&gt;" style="rounded=0;whiteSpace=wrap;html=1;strokeWidth=1;" parent="1" vertex="1">
                    <mxGeometry x="179.9999999999999" y="760" width="120" height="60" as="geometry"/>
                </mxCell>
                <mxCell id="WeDCFjo-PFTkXxU_heEy-5" style="edgeStyle=none;html=1;entryX=1;entryY=1;entryDx=0;entryDy=0;endArrow=none;endFill=0;" parent="1" source="0l42mQMv9FSP3d1RYAwH-11" target="WeDCFjo-PFTkXxU_heEy-1" edge="1">
                    <mxGeometry relative="1" as="geometry"/>
                </mxCell>
                <mxCell id="0l42mQMv9FSP3d1RYAwH-11" value="Time" style="ellipse;whiteSpace=wrap;html=1;fontSize=19;strokeWidth=1;rounded=0;" parent="1" vertex="1">
                    <mxGeometry x="615" y="760" width="100" height="60" as="geometry"/>
                </mxCell>
                <mxCell id="WeDCFjo-PFTkXxU_heEy-7" style="edgeStyle=none;html=1;entryX=0.402;entryY=0.961;entryDx=0;entryDy=0;entryPerimeter=0;endArrow=none;endFill=0;" parent="1" source="0l42mQMv9FSP3d1RYAwH-12" target="WeDCFjo-PFTkXxU_heEy-1" edge="1">
                    <mxGeometry relative="1" as="geometry"/>
                </mxCell>
                <mxCell id="0l42mQMv9FSP3d1RYAwH-12" value="Date" style="ellipse;whiteSpace=wrap;html=1;fontSize=19;strokeWidth=1;rounded=0;" parent="1" vertex="1">
                    <mxGeometry x="370" y="800" width="100" height="60" as="geometry"/>
                </mxCell>
                <mxCell id="gTyuBGzVv1nn4_24LGDJ-2" style="edgeStyle=none;html=1;entryX=0;entryY=1;entryDx=0;entryDy=0;fontSize=18;endArrow=none;endFill=0;shape=link;" parent="1" source="0l42mQMv9FSP3d1RYAwH-13" target="gTyuBGzVv1nn4_24LGDJ-1" edge="1">
                    <mxGeometry relative="1" as="geometry"/>
                </mxCell>
                <mxCell id="gTyuBGzVv1nn4_24LGDJ-5" value="M" style="edgeLabel;html=1;align=center;verticalAlign=middle;resizable=0;points=[];fontSize=18;" parent="gTyuBGzVv1nn4_24LGDJ-2" vertex="1" connectable="0">
                    <mxGeometry x="-0.6452" y="-1" relative="1" as="geometry">
                        <mxPoint as="offset"/>
                    </mxGeometry>
                </mxCell>
                <mxCell id="WeDCFjo-PFTkXxU_heEy-2" style="edgeStyle=none;html=1;endArrow=none;endFill=0;" parent="1" source="0l42mQMv9FSP3d1RYAwH-13" target="WeDCFjo-PFTkXxU_heEy-1" edge="1">
                    <mxGeometry relative="1" as="geometry"/>
                </mxCell>
                <mxCell id="QPGCnXSMeDLOfhl8SLdc-7" value="M" style="edgeLabel;html=1;align=center;verticalAlign=middle;resizable=0;points=[];fontSize=17;" vertex="1" connectable="0" parent="WeDCFjo-PFTkXxU_heEy-2">
                    <mxGeometry x="-0.7902" y="-1" relative="1" as="geometry">
                        <mxPoint as="offset"/>
                    </mxGeometry>
                </mxCell>
                <mxCell id="QPGCnXSMeDLOfhl8SLdc-1" style="edgeStyle=none;html=1;entryX=0.5;entryY=1;entryDx=0;entryDy=0;endArrow=none;endFill=0;" edge="1" parent="1" source="0l42mQMv9FSP3d1RYAwH-13" target="QPGCnXSMeDLOfhl8SLdc-2">
                    <mxGeometry relative="1" as="geometry">
                        <mxPoint x="140" y="380" as="targetPoint"/>
                    </mxGeometry>
                </mxCell>
                <mxCell id="QPGCnXSMeDLOfhl8SLdc-6" value="1" style="edgeLabel;html=1;align=center;verticalAlign=middle;resizable=0;points=[];fontSize=17;" vertex="1" connectable="0" parent="QPGCnXSMeDLOfhl8SLdc-1">
                    <mxGeometry x="-0.3431" y="1" relative="1" as="geometry">
                        <mxPoint as="offset"/>
                    </mxGeometry>
                </mxCell>
                <mxCell id="0l42mQMv9FSP3d1RYAwH-13" value="&lt;font style=&quot;font-size: 19px;&quot;&gt;Nurse&lt;/font&gt;" style="rounded=0;whiteSpace=wrap;html=1;strokeWidth=1;" parent="1" vertex="1">
                    <mxGeometry x="89.99999999999989" y="495" width="120" height="60" as="geometry"/>
                </mxCell>
                <mxCell id="0l42mQMv9FSP3d1RYAwH-16" value="&lt;u&gt;Code_Num&lt;/u&gt;" style="ellipse;whiteSpace=wrap;html=1;fontSize=19;strokeWidth=1;rounded=0;" parent="1" vertex="1">
                    <mxGeometry x="-60" y="905" width="110" height="60" as="geometry"/>
                </mxCell>
                <mxCell id="0l42mQMv9FSP3d1RYAwH-18" value="Dosage" style="ellipse;whiteSpace=wrap;html=1;fontSize=19;strokeWidth=1;rounded=0;" parent="1" vertex="1">
                    <mxGeometry x="220" y="970" width="100" height="60" as="geometry"/>
                </mxCell>
                <mxCell id="0l42mQMv9FSP3d1RYAwH-20" value="Brand" style="ellipse;whiteSpace=wrap;html=1;fontSize=19;strokeWidth=1;rounded=0;fillStyle=auto;fillColor=default;gradientColor=none;strokeColor=default;" parent="1" vertex="1">
                    <mxGeometry x="365" y="970" width="100" height="60" as="geometry"/>
                </mxCell>
                <mxCell id="0l42mQMv9FSP3d1RYAwH-21" value="" style="ellipse;whiteSpace=wrap;html=1;fontSize=19;strokeWidth=1;rounded=0;fillStyle=auto;fillColor=none;gradientColor=none;strokeColor=default;" parent="1" vertex="1">
                    <mxGeometry x="360" y="965" width="110" height="70" as="geometry"/>
                </mxCell>
                <mxCell id="WeDCFjo-PFTkXxU_heEy-6" style="edgeStyle=none;html=1;entryX=0.599;entryY=0.916;entryDx=0;entryDy=0;entryPerimeter=0;endArrow=none;endFill=0;" parent="1" source="0l42mQMv9FSP3d1RYAwH-23" target="WeDCFjo-PFTkXxU_heEy-1" edge="1">
                    <mxGeometry relative="1" as="geometry"/>
                </mxCell>
                <mxCell id="0l42mQMv9FSP3d1RYAwH-23" value="Taken_Dosage" style="ellipse;whiteSpace=wrap;html=1;fontSize=19;strokeWidth=1;rounded=0;" parent="1" vertex="1">
                    <mxGeometry x="506" y="840" width="140" height="60" as="geometry"/>
                </mxCell>
                <mxCell id="0l42mQMv9FSP3d1RYAwH-28" style="edgeStyle=none;html=1;entryX=0;entryY=0.25;entryDx=0;entryDy=0;fontSize=18;endArrow=none;endFill=0;" parent="1" source="0l42mQMv9FSP3d1RYAwH-25" target="0l42mQMv9FSP3d1RYAwH-13" edge="1">
                    <mxGeometry relative="1" as="geometry"/>
                </mxCell>
                <mxCell id="0l42mQMv9FSP3d1RYAwH-25" value="Name" style="ellipse;whiteSpace=wrap;html=1;fontSize=19;strokeWidth=1;rounded=0;" parent="1" vertex="1">
                    <mxGeometry x="-80" y="400" width="100" height="60" as="geometry"/>
                </mxCell>
                <mxCell id="0l42mQMv9FSP3d1RYAwH-29" style="edgeStyle=none;html=1;entryX=0;entryY=0.5;entryDx=0;entryDy=0;fontSize=18;endArrow=none;endFill=0;" parent="1" source="0l42mQMv9FSP3d1RYAwH-26" target="0l42mQMv9FSP3d1RYAwH-13" edge="1">
                    <mxGeometry relative="1" as="geometry"/>
                </mxCell>
                <mxCell id="0l42mQMv9FSP3d1RYAwH-26" value="&lt;u&gt;Number&lt;/u&gt;" style="ellipse;whiteSpace=wrap;html=1;fontSize=19;strokeWidth=1;rounded=0;" parent="1" vertex="1">
                    <mxGeometry x="-80" y="495" width="100" height="60" as="geometry"/>
                </mxCell>
                <mxCell id="0l42mQMv9FSP3d1RYAwH-30" style="edgeStyle=none;html=1;entryX=0;entryY=0.75;entryDx=0;entryDy=0;fontSize=18;endArrow=none;endFill=0;" parent="1" source="0l42mQMv9FSP3d1RYAwH-27" target="0l42mQMv9FSP3d1RYAwH-13" edge="1">
                    <mxGeometry relative="1" as="geometry"/>
                </mxCell>
                <mxCell id="0l42mQMv9FSP3d1RYAwH-27" value="Address" style="ellipse;whiteSpace=wrap;html=1;fontSize=19;strokeWidth=1;rounded=0;" parent="1" vertex="1">
                    <mxGeometry x="-80" y="590" width="100" height="60" as="geometry"/>
                </mxCell>
                <mxCell id="gTyuBGzVv1nn4_24LGDJ-3" style="edgeStyle=none;html=1;entryX=0;entryY=1;entryDx=0;entryDy=0;fontSize=18;endArrow=none;endFill=0;exitX=1;exitY=0;exitDx=0;exitDy=0;shape=link;" parent="1" source="gTyuBGzVv1nn4_24LGDJ-1" target="9B4nKgWa5E8Fh8OOL9md-2" edge="1">
                    <mxGeometry relative="1" as="geometry"/>
                </mxCell>
                <mxCell id="gTyuBGzVv1nn4_24LGDJ-4" value="1" style="edgeLabel;html=1;align=center;verticalAlign=middle;resizable=0;points=[];fontSize=18;" parent="gTyuBGzVv1nn4_24LGDJ-3" vertex="1" connectable="0">
                    <mxGeometry x="0.5711" y="-2" relative="1" as="geometry">
                        <mxPoint y="-2" as="offset"/>
                    </mxGeometry>
                </mxCell>
                <mxCell id="gTyuBGzVv1nn4_24LGDJ-1" value="Serve" style="rhombus;whiteSpace=wrap;html=1;strokeWidth=1;fontSize=19;rounded=0;" parent="1" vertex="1">
                    <mxGeometry x="260" y="375" width="125" height="110" as="geometry"/>
                </mxCell>
                <mxCell id="gTyuBGzVv1nn4_24LGDJ-6" value="&lt;font style=&quot;font-size: 17px;&quot;&gt;For the total participation here suppose&lt;br&gt;there's no wards with no nurses&lt;/font&gt;" style="text;html=1;align=center;verticalAlign=middle;resizable=0;points=[];autosize=1;strokeColor=none;fillColor=none;fontSize=18;" parent="1" vertex="1">
                    <mxGeometry x="-260" y="70" width="320" height="60" as="geometry"/>
                </mxCell>
                <mxCell id="gTyuBGzVv1nn4_24LGDJ-7" style="edgeStyle=none;html=1;fontSize=18;endArrow=none;endFill=0;startArrow=classic;startFill=1;entryX=0.576;entryY=1.017;entryDx=0;entryDy=0;entryPerimeter=0;" parent="1" target="gTyuBGzVv1nn4_24LGDJ-6" edge="1">
                    <mxGeometry relative="1" as="geometry">
                        <mxPoint x="390" y="360" as="sourcePoint"/>
                        <mxPoint x="314.13" y="280" as="targetPoint"/>
                    </mxGeometry>
                </mxCell>
                <mxCell id="gTyuBGzVv1nn4_24LGDJ-11" style="edgeStyle=none;html=1;exitX=1;exitY=1;exitDx=0;exitDy=0;entryX=0;entryY=0;entryDx=0;entryDy=0;fontSize=17;startArrow=none;startFill=0;endArrow=none;endFill=0;shape=link;" parent="1" source="gTyuBGzVv1nn4_24LGDJ-9" target="vmyh9sjizWj1JWr0cyY4-1" edge="1">
                    <mxGeometry relative="1" as="geometry"/>
                </mxCell>
                <mxCell id="gTyuBGzVv1nn4_24LGDJ-13" value="M" style="edgeLabel;html=1;align=center;verticalAlign=middle;resizable=0;points=[];fontSize=17;" parent="gTyuBGzVv1nn4_24LGDJ-11" vertex="1" connectable="0">
                    <mxGeometry x="0.7843" y="-2" relative="1" as="geometry">
                        <mxPoint x="3" as="offset"/>
                    </mxGeometry>
                </mxCell>
                <mxCell id="gTyuBGzVv1nn4_24LGDJ-9" value="Host" style="rhombus;whiteSpace=wrap;html=1;strokeWidth=1;fontSize=19;rounded=0;" parent="1" vertex="1">
                    <mxGeometry x="602.5" y="445" width="125" height="110" as="geometry"/>
                </mxCell>
                <mxCell id="gTyuBGzVv1nn4_24LGDJ-15" style="edgeStyle=none;html=1;entryX=0.5;entryY=1;entryDx=0;entryDy=0;fontSize=17;startArrow=none;startFill=0;endArrow=none;endFill=0;" parent="1" source="gTyuBGzVv1nn4_24LGDJ-14" target="0l42mQMv9FSP3d1RYAwH-5" edge="1">
                    <mxGeometry relative="1" as="geometry"/>
                </mxCell>
                <mxCell id="gTyuBGzVv1nn4_24LGDJ-17" value="1" style="edgeLabel;html=1;align=center;verticalAlign=middle;resizable=0;points=[];fontSize=17;" parent="gTyuBGzVv1nn4_24LGDJ-15" vertex="1" connectable="0">
                    <mxGeometry x="0.7141" y="1" relative="1" as="geometry">
                        <mxPoint x="1" y="4" as="offset"/>
                    </mxGeometry>
                </mxCell>
                <mxCell id="gTyuBGzVv1nn4_24LGDJ-16" style="edgeStyle=none;shape=link;html=1;fontSize=17;startArrow=none;startFill=0;endArrow=none;endFill=0;" parent="1" source="gTyuBGzVv1nn4_24LGDJ-14" target="vmyh9sjizWj1JWr0cyY4-1" edge="1">
                    <mxGeometry relative="1" as="geometry"/>
                </mxCell>
                <mxCell id="gTyuBGzVv1nn4_24LGDJ-18" value="M" style="edgeLabel;html=1;align=center;verticalAlign=middle;resizable=0;points=[];fontSize=17;" parent="gTyuBGzVv1nn4_24LGDJ-16" vertex="1" connectable="0">
                    <mxGeometry x="0.7486" y="-1" relative="1" as="geometry">
                        <mxPoint x="1" y="-5" as="offset"/>
                    </mxGeometry>
                </mxCell>
                <mxCell id="gTyuBGzVv1nn4_24LGDJ-14" value="Assigned" style="rhombus;whiteSpace=wrap;html=1;strokeWidth=1;fontSize=19;rounded=0;" parent="1" vertex="1">
                    <mxGeometry x="817.5" y="440" width="125" height="110" as="geometry"/>
                </mxCell>
                <mxCell id="WeDCFjo-PFTkXxU_heEy-3" style="edgeStyle=none;html=1;entryX=0;entryY=0.5;entryDx=0;entryDy=0;endArrow=none;endFill=0;" parent="1" source="WeDCFjo-PFTkXxU_heEy-1" target="vmyh9sjizWj1JWr0cyY4-1" edge="1">
                    <mxGeometry relative="1" as="geometry"/>
                </mxCell>
                <mxCell id="QPGCnXSMeDLOfhl8SLdc-8" value="M" style="edgeLabel;html=1;align=center;verticalAlign=middle;resizable=0;points=[];fontSize=17;" vertex="1" connectable="0" parent="WeDCFjo-PFTkXxU_heEy-3">
                    <mxGeometry x="0.7191" y="1" relative="1" as="geometry">
                        <mxPoint as="offset"/>
                    </mxGeometry>
                </mxCell>
                <mxCell id="WeDCFjo-PFTkXxU_heEy-1" value="Gives" style="rhombus;whiteSpace=wrap;html=1;strokeWidth=1;fontSize=19;rounded=0;" parent="1" vertex="1">
                    <mxGeometry x="400" y="585" width="125" height="110" as="geometry"/>
                </mxCell>
                <mxCell id="c7gvKn73T0Td2fXNEq2t-3" style="edgeStyle=none;html=1;entryX=1;entryY=0;entryDx=0;entryDy=0;endArrow=none;endFill=0;exitX=0.5;exitY=1;exitDx=0;exitDy=0;" parent="1" source="c7gvKn73T0Td2fXNEq2t-2" target="vmyh9sjizWj1JWr0cyY4-1" edge="1">
                    <mxGeometry relative="1" as="geometry"/>
                </mxCell>
                <mxCell id="c7gvKn73T0Td2fXNEq2t-7" value="M" style="edgeLabel;html=1;align=center;verticalAlign=middle;resizable=0;points=[];fontSize=17;" parent="c7gvKn73T0Td2fXNEq2t-3" vertex="1" connectable="0">
                    <mxGeometry x="0.6955" y="-1" relative="1" as="geometry">
                        <mxPoint as="offset"/>
                    </mxGeometry>
                </mxCell>
                <mxCell id="c7gvKn73T0Td2fXNEq2t-2" value="Examined" style="rhombus;whiteSpace=wrap;html=1;strokeWidth=1;fontSize=19;rounded=0;" parent="1" vertex="1">
                    <mxGeometry x="970" y="460" width="125" height="110" as="geometry"/>
                </mxCell>
                <mxCell id="QPGCnXSMeDLOfhl8SLdc-3" style="edgeStyle=none;html=1;entryX=0;entryY=0.5;entryDx=0;entryDy=0;endArrow=none;endFill=0;exitX=0.5;exitY=0;exitDx=0;exitDy=0;shape=link;" edge="1" parent="1" source="QPGCnXSMeDLOfhl8SLdc-2" target="9B4nKgWa5E8Fh8OOL9md-2">
                    <mxGeometry relative="1" as="geometry"/>
                </mxCell>
                <mxCell id="QPGCnXSMeDLOfhl8SLdc-5" value="&lt;font style=&quot;font-size: 17px;&quot;&gt;1&lt;/font&gt;" style="edgeLabel;html=1;align=center;verticalAlign=middle;resizable=0;points=[];" vertex="1" connectable="0" parent="QPGCnXSMeDLOfhl8SLdc-3">
                    <mxGeometry x="0.6349" y="2" relative="1" as="geometry">
                        <mxPoint as="offset"/>
                    </mxGeometry>
                </mxCell>
                <mxCell id="QPGCnXSMeDLOfhl8SLdc-2" value="Supervise" style="rhombus;whiteSpace=wrap;html=1;strokeWidth=1;fontSize=19;rounded=0;rotation=20;" vertex="1" parent="1">
                    <mxGeometry x="120" y="330" width="115" height="100" as="geometry"/>
                </mxCell>
            </root>
        </mxGraphModel>
    </diagram>
    <diagram id="RFyyVNYomtn7I7damwrJ" name="P4">
        <mxGraphModel dx="1999" dy="550" grid="1" gridSize="10" guides="1" tooltips="1" connect="1" arrows="1" fold="1" page="1" pageScale="1" pageWidth="827" pageHeight="1169" math="0" shadow="0">
            <root>
                <mxCell id="0"/>
                <mxCell id="1" parent="0"/>
                <mxCell id="L3H7gurLw2RPBnqMuixi-2" value="Problem 4 &lt;br&gt;&lt;br&gt;&lt;blockquote style=&quot;margin: 0 0 0 40px; border: none; padding: 0px;&quot;&gt;Major airlines companies that provide passenger services keep database with lots of information on&amp;nbsp; all airlines .&lt;/blockquote&gt;&lt;blockquote style=&quot;margin: 0 0 0 40px; border: none; padding: 0px;&quot;&gt;1&amp;nbsp; . Each airline has an identification number, name and address, name of the contact person and telephone&amp;nbsp; numbers .&lt;br&gt;&lt;/blockquote&gt;&lt;blockquote style=&quot;margin: 0 0 0 40px; border: none; padding: 0px;&quot;&gt;2&amp;nbsp; . Each employee works in Airline Company has an employee identification number, name, address,&amp;nbsp; birthday recorded as (day, month, year), gender, position with the company, and qualifications .&lt;br&gt;&lt;/blockquote&gt;&lt;blockquote style=&quot;margin: 0 0 0 40px; border: none; padding: 0px;&quot;&gt;3&amp;nbsp; . Each airline owns different aircrafts. For each aircraft an aircraft identification number, capacity, and&amp;nbsp; model is recorded.&lt;/blockquote&gt;&lt;blockquote style=&quot;margin: 0 0 0 40px; border: none; padding: 0px;&quot;&gt; 4&amp;nbsp; . The aircrafts are assigned to different routes. An aircraft can work on more than one route and a route&amp;nbsp; has many aircrafts going on it.&amp;nbsp; &amp;nbsp; &amp;nbsp; &amp;nbsp;&amp;nbsp;&lt;/blockquote&gt;&lt;blockquote style=&quot;margin: 0 0 0 40px; border: none; padding: 0px;&quot;&gt;Each route has a route identification number, origin, destination, distance,classification (e.g. domestic or international route) .&lt;/blockquote&gt;&lt;blockquote style=&quot;margin: 0 0 0 40px; border: none; padding: 0px;&quot;&gt;Some information as number of passengers, price per passenger, departure&amp;nbsp; date time, arrival date time and the time that aircraft spent in travelling the route are recorded.&lt;br&gt;&lt;/blockquote&gt;&lt;blockquote style=&quot;margin: 0 0 0 40px; border: none; padding: 0px;&quot;&gt;5&amp;nbsp; . Each aircraft has its own crew (major pilot, assistant pilot and two hostesses), the aircraft crew not&amp;nbsp; stored as employee. Each crew is assigned to only one aircraft.&lt;/blockquote&gt;&lt;blockquote style=&quot;margin: 0 0 0 40px; border: none; padding: 0px;&quot;&gt;6&amp;nbsp; . Each airline keeps information about their buy/sell transactions (for example selling an airplane ticket is&amp;nbsp; &amp;nbsp;a sell transaction, paying for maintenance is a buy transaction). Each transaction has a transaction&amp;nbsp; identification number, date, description, and amount of money paid/received.&lt;/blockquote&gt;&lt;blockquote style=&quot;margin: 0 0 0 40px; border: none; padding: 0px;&quot;&gt;Draw an E-R diagram for the database presented above&lt;/blockquote&gt;" style="text;whiteSpace=wrap;html=1;fontSize=16;fillColor=none;" parent="1" vertex="1">
                    <mxGeometry x="440" y="40" width="960" height="360" as="geometry"/>
                </mxCell>
                <mxCell id="gko9lDjD-mS0LvUdObCr-1" value="&lt;u style=&quot;font-size: 14px;&quot;&gt;id_num&lt;/u&gt;" style="ellipse;whiteSpace=wrap;html=1;fontSize=14;" parent="1" vertex="1">
                    <mxGeometry x="155" y="630" width="70" height="40" as="geometry"/>
                </mxCell>
                <mxCell id="gko9lDjD-mS0LvUdObCr-2" style="edgeStyle=none;html=1;exitX=0.25;exitY=0;exitDx=0;exitDy=0;endArrow=none;endFill=0;fontSize=14;" parent="1" source="gko9lDjD-mS0LvUdObCr-9" target="gko9lDjD-mS0LvUdObCr-1" edge="1">
                    <mxGeometry relative="1" as="geometry"/>
                </mxCell>
                <mxCell id="gko9lDjD-mS0LvUdObCr-3" style="edgeStyle=none;html=1;exitX=0.5;exitY=0;exitDx=0;exitDy=0;entryX=1;entryY=1;entryDx=0;entryDy=0;endArrow=none;endFill=0;fontSize=14;" parent="1" source="gko9lDjD-mS0LvUdObCr-9" target="gko9lDjD-mS0LvUdObCr-10" edge="1">
                    <mxGeometry relative="1" as="geometry"/>
                </mxCell>
                <mxCell id="gko9lDjD-mS0LvUdObCr-4" style="edgeStyle=none;html=1;exitX=0.75;exitY=0;exitDx=0;exitDy=0;entryX=0.5;entryY=1;entryDx=0;entryDy=0;endArrow=none;endFill=0;fontSize=14;" parent="1" source="gko9lDjD-mS0LvUdObCr-9" target="gko9lDjD-mS0LvUdObCr-11" edge="1">
                    <mxGeometry relative="1" as="geometry"/>
                </mxCell>
                <mxCell id="gko9lDjD-mS0LvUdObCr-5" style="edgeStyle=none;html=1;exitX=0;exitY=0.5;exitDx=0;exitDy=0;endArrow=none;endFill=0;entryX=1;entryY=0.5;entryDx=0;entryDy=0;fontSize=14;" parent="1" source="gko9lDjD-mS0LvUdObCr-9" target="gko9lDjD-mS0LvUdObCr-12" edge="1">
                    <mxGeometry relative="1" as="geometry">
                        <mxPoint x="230" y="690.1666666666667" as="targetPoint"/>
                    </mxGeometry>
                </mxCell>
                <mxCell id="gko9lDjD-mS0LvUdObCr-6" style="edgeStyle=none;html=1;exitX=1;exitY=0.5;exitDx=0;exitDy=0;entryX=0;entryY=0.5;entryDx=0;entryDy=0;endArrow=none;endFill=0;fontSize=14;shape=link;" parent="1" source="gko9lDjD-mS0LvUdObCr-9" target="gko9lDjD-mS0LvUdObCr-82" edge="1">
                    <mxGeometry relative="1" as="geometry"/>
                </mxCell>
                <mxCell id="VuSn1augy5LbkCHE8JEC-6" value="&lt;font style=&quot;font-size: 14px;&quot;&gt;1&lt;/font&gt;" style="edgeLabel;html=1;align=center;verticalAlign=middle;resizable=0;points=[];" vertex="1" connectable="0" parent="gko9lDjD-mS0LvUdObCr-6">
                    <mxGeometry x="-0.5441" y="-1" relative="1" as="geometry">
                        <mxPoint x="-1" as="offset"/>
                    </mxGeometry>
                </mxCell>
                <mxCell id="gko9lDjD-mS0LvUdObCr-7" value="" style="edgeStyle=none;html=1;endArrow=none;endFill=0;fontSize=14;shape=link;" parent="1" source="gko9lDjD-mS0LvUdObCr-9" target="gko9lDjD-mS0LvUdObCr-85" edge="1">
                    <mxGeometry relative="1" as="geometry"/>
                </mxCell>
                <mxCell id="gko9lDjD-mS0LvUdObCr-8" style="edgeStyle=none;html=1;exitX=1;exitY=0;exitDx=0;exitDy=0;endArrow=none;endFill=0;entryX=0.5;entryY=1;entryDx=0;entryDy=0;fontSize=14;shape=link;" parent="1" source="gko9lDjD-mS0LvUdObCr-9" target="gko9lDjD-mS0LvUdObCr-96" edge="1">
                    <mxGeometry relative="1" as="geometry">
                        <mxPoint x="430" y="590" as="targetPoint"/>
                    </mxGeometry>
                </mxCell>
                <mxCell id="VuSn1augy5LbkCHE8JEC-9" value="1" style="edgeLabel;html=1;align=center;verticalAlign=middle;resizable=0;points=[];fontSize=14;" vertex="1" connectable="0" parent="gko9lDjD-mS0LvUdObCr-8">
                    <mxGeometry x="-0.6538" y="3" relative="1" as="geometry">
                        <mxPoint as="offset"/>
                    </mxGeometry>
                </mxCell>
                <mxCell id="gko9lDjD-mS0LvUdObCr-9" value="airline&amp;nbsp;" style="rounded=0;whiteSpace=wrap;html=1;fontSize=14;" parent="1" vertex="1">
                    <mxGeometry x="290" y="670" width="70" height="30" as="geometry"/>
                </mxCell>
                <mxCell id="gko9lDjD-mS0LvUdObCr-10" value="address" style="ellipse;whiteSpace=wrap;html=1;fontSize=14;" parent="1" vertex="1">
                    <mxGeometry x="190" y="585" width="70" height="40" as="geometry"/>
                </mxCell>
                <mxCell id="gko9lDjD-mS0LvUdObCr-11" value="contact_name" style="ellipse;whiteSpace=wrap;html=1;fontSize=14;" parent="1" vertex="1">
                    <mxGeometry x="272.5" y="580" width="90" height="40" as="geometry"/>
                </mxCell>
                <mxCell id="gko9lDjD-mS0LvUdObCr-12" value="name" style="ellipse;whiteSpace=wrap;html=1;fontSize=14;" parent="1" vertex="1">
                    <mxGeometry x="160" y="680" width="60" height="30" as="geometry"/>
                </mxCell>
                <mxCell id="gko9lDjD-mS0LvUdObCr-13" style="edgeStyle=none;html=1;exitX=1;exitY=0.5;exitDx=0;exitDy=0;entryX=0;entryY=0.75;entryDx=0;entryDy=0;endArrow=none;endFill=0;fontSize=14;" parent="1" source="gko9lDjD-mS0LvUdObCr-14" target="gko9lDjD-mS0LvUdObCr-9" edge="1">
                    <mxGeometry relative="1" as="geometry"/>
                </mxCell>
                <mxCell id="gko9lDjD-mS0LvUdObCr-14" value="contact_telephone" style="ellipse;whiteSpace=wrap;html=1;fontSize=14;" parent="1" vertex="1">
                    <mxGeometry x="100" y="720" width="130" height="40" as="geometry"/>
                </mxCell>
                <mxCell id="gko9lDjD-mS0LvUdObCr-15" style="edgeStyle=none;html=1;exitX=1;exitY=0;exitDx=0;exitDy=0;entryX=0.222;entryY=0.948;entryDx=0;entryDy=0;entryPerimeter=0;endArrow=none;endFill=0;fontSize=14;" parent="1" source="gko9lDjD-mS0LvUdObCr-23" target="gko9lDjD-mS0LvUdObCr-26" edge="1">
                    <mxGeometry relative="1" as="geometry"/>
                </mxCell>
                <mxCell id="gko9lDjD-mS0LvUdObCr-16" style="edgeStyle=none;html=1;exitX=0.75;exitY=0;exitDx=0;exitDy=0;entryX=0.5;entryY=1;entryDx=0;entryDy=0;endArrow=none;endFill=0;fontSize=14;" parent="1" source="gko9lDjD-mS0LvUdObCr-23" target="gko9lDjD-mS0LvUdObCr-24" edge="1">
                    <mxGeometry relative="1" as="geometry"/>
                </mxCell>
                <mxCell id="gko9lDjD-mS0LvUdObCr-17" style="edgeStyle=none;html=1;exitX=0.5;exitY=0;exitDx=0;exitDy=0;entryX=0.63;entryY=0.962;entryDx=0;entryDy=0;entryPerimeter=0;endArrow=none;endFill=0;fontSize=14;" parent="1" source="gko9lDjD-mS0LvUdObCr-23" target="gko9lDjD-mS0LvUdObCr-25" edge="1">
                    <mxGeometry relative="1" as="geometry"/>
                </mxCell>
                <mxCell id="gko9lDjD-mS0LvUdObCr-18" style="edgeStyle=none;html=1;exitX=1;exitY=0.5;exitDx=0;exitDy=0;endArrow=none;endFill=0;fontSize=14;" parent="1" source="gko9lDjD-mS0LvUdObCr-23" target="gko9lDjD-mS0LvUdObCr-27" edge="1">
                    <mxGeometry relative="1" as="geometry"/>
                </mxCell>
                <mxCell id="gko9lDjD-mS0LvUdObCr-19" style="edgeStyle=none;html=1;exitX=0.75;exitY=1;exitDx=0;exitDy=0;endArrow=none;endFill=0;entryX=0;entryY=0;entryDx=0;entryDy=0;fontSize=14;" parent="1" source="gko9lDjD-mS0LvUdObCr-23" target="gko9lDjD-mS0LvUdObCr-31" edge="1">
                    <mxGeometry relative="1" as="geometry">
                        <mxPoint x="760" y="760.0000000000001" as="targetPoint"/>
                    </mxGeometry>
                </mxCell>
                <mxCell id="gko9lDjD-mS0LvUdObCr-20" style="edgeStyle=none;html=1;exitX=0.174;exitY=-0.003;exitDx=0;exitDy=0;endArrow=none;endFill=0;exitPerimeter=0;fontSize=14;" parent="1" source="gko9lDjD-mS0LvUdObCr-23" target="gko9lDjD-mS0LvUdObCr-36" edge="1">
                    <mxGeometry relative="1" as="geometry"/>
                </mxCell>
                <mxCell id="gko9lDjD-mS0LvUdObCr-21" style="edgeStyle=none;html=1;exitX=0;exitY=0.25;exitDx=0;exitDy=0;entryX=1;entryY=1;entryDx=0;entryDy=0;endArrow=none;endFill=0;fontSize=14;" parent="1" source="gko9lDjD-mS0LvUdObCr-23" target="gko9lDjD-mS0LvUdObCr-37" edge="1">
                    <mxGeometry relative="1" as="geometry"/>
                </mxCell>
                <mxCell id="gko9lDjD-mS0LvUdObCr-22" style="edgeStyle=none;html=1;exitX=0;exitY=0.5;exitDx=0;exitDy=0;entryX=0.968;entryY=0.708;entryDx=0;entryDy=0;entryPerimeter=0;endArrow=none;endFill=0;fontSize=14;" parent="1" source="gko9lDjD-mS0LvUdObCr-23" target="gko9lDjD-mS0LvUdObCr-38" edge="1">
                    <mxGeometry relative="1" as="geometry"/>
                </mxCell>
                <mxCell id="gko9lDjD-mS0LvUdObCr-23" value="employee" style="rounded=0;whiteSpace=wrap;html=1;fontSize=14;" parent="1" vertex="1">
                    <mxGeometry x="620" y="680" width="70" height="30" as="geometry"/>
                </mxCell>
                <mxCell id="gko9lDjD-mS0LvUdObCr-24" value="address" style="ellipse;whiteSpace=wrap;html=1;fontSize=14;" parent="1" vertex="1">
                    <mxGeometry x="730" y="580" width="70" height="40" as="geometry"/>
                </mxCell>
                <mxCell id="gko9lDjD-mS0LvUdObCr-25" value="&lt;u style=&quot;font-size: 14px;&quot;&gt;id_num&lt;/u&gt;" style="ellipse;whiteSpace=wrap;html=1;fontSize=14;" parent="1" vertex="1">
                    <mxGeometry x="655" y="580" width="70" height="40" as="geometry"/>
                </mxCell>
                <mxCell id="gko9lDjD-mS0LvUdObCr-26" value="name" style="ellipse;whiteSpace=wrap;html=1;fontSize=14;" parent="1" vertex="1">
                    <mxGeometry x="810" y="602.5" width="60" height="40" as="geometry"/>
                </mxCell>
                <mxCell id="gko9lDjD-mS0LvUdObCr-27" value="address" style="ellipse;whiteSpace=wrap;html=1;fontSize=14;" parent="1" vertex="1">
                    <mxGeometry x="820" y="650" width="70" height="40" as="geometry"/>
                </mxCell>
                <mxCell id="gko9lDjD-mS0LvUdObCr-28" style="edgeStyle=none;html=1;exitX=0.5;exitY=1;exitDx=0;exitDy=0;entryX=0.418;entryY=0.042;entryDx=0;entryDy=0;entryPerimeter=0;endArrow=none;endFill=0;fontSize=14;" parent="1" source="gko9lDjD-mS0LvUdObCr-31" target="gko9lDjD-mS0LvUdObCr-34" edge="1">
                    <mxGeometry relative="1" as="geometry"/>
                </mxCell>
                <mxCell id="gko9lDjD-mS0LvUdObCr-29" style="edgeStyle=none;html=1;exitX=1;exitY=1;exitDx=0;exitDy=0;endArrow=none;endFill=0;fontSize=14;" parent="1" source="gko9lDjD-mS0LvUdObCr-31" target="gko9lDjD-mS0LvUdObCr-33" edge="1">
                    <mxGeometry relative="1" as="geometry"/>
                </mxCell>
                <mxCell id="gko9lDjD-mS0LvUdObCr-30" style="edgeStyle=none;html=1;exitX=1;exitY=0.5;exitDx=0;exitDy=0;entryX=0;entryY=0.5;entryDx=0;entryDy=0;endArrow=none;endFill=0;fontSize=14;" parent="1" source="gko9lDjD-mS0LvUdObCr-31" target="gko9lDjD-mS0LvUdObCr-32" edge="1">
                    <mxGeometry relative="1" as="geometry"/>
                </mxCell>
                <mxCell id="gko9lDjD-mS0LvUdObCr-31" value="BDay" style="ellipse;whiteSpace=wrap;html=1;fontSize=14;" parent="1" vertex="1">
                    <mxGeometry x="719.9999999999999" y="740" width="80" height="50" as="geometry"/>
                </mxCell>
                <mxCell id="gko9lDjD-mS0LvUdObCr-32" value="day" style="ellipse;whiteSpace=wrap;html=1;fontSize=14;" parent="1" vertex="1">
                    <mxGeometry x="860" y="735" width="60" height="40" as="geometry"/>
                </mxCell>
                <mxCell id="gko9lDjD-mS0LvUdObCr-33" value="month" style="ellipse;whiteSpace=wrap;html=1;fontSize=14;" parent="1" vertex="1">
                    <mxGeometry x="860" y="800" width="70" height="40" as="geometry"/>
                </mxCell>
                <mxCell id="gko9lDjD-mS0LvUdObCr-34" value="year" style="ellipse;whiteSpace=wrap;html=1;fontSize=14;" parent="1" vertex="1">
                    <mxGeometry x="780" y="820" width="60" height="40" as="geometry"/>
                </mxCell>
                <mxCell id="gko9lDjD-mS0LvUdObCr-36" value="gender" style="ellipse;whiteSpace=wrap;html=1;fontSize=14;" parent="1" vertex="1">
                    <mxGeometry x="590" y="580" width="60" height="40" as="geometry"/>
                </mxCell>
                <mxCell id="gko9lDjD-mS0LvUdObCr-37" value="position" style="ellipse;whiteSpace=wrap;html=1;fontSize=14;" parent="1" vertex="1">
                    <mxGeometry x="520" y="580" width="60" height="40" as="geometry"/>
                </mxCell>
                <mxCell id="gko9lDjD-mS0LvUdObCr-38" value="qualifications" style="ellipse;whiteSpace=wrap;html=1;fontSize=14;" parent="1" vertex="1">
                    <mxGeometry x="440" y="605" width="80" height="45" as="geometry"/>
                </mxCell>
                <mxCell id="gko9lDjD-mS0LvUdObCr-39" style="edgeStyle=none;html=1;exitX=0;exitY=0;exitDx=0;exitDy=0;entryX=1;entryY=0.5;entryDx=0;entryDy=0;endArrow=none;endFill=0;fontSize=14;" parent="1" source="gko9lDjD-mS0LvUdObCr-48" target="gko9lDjD-mS0LvUdObCr-49" edge="1">
                    <mxGeometry relative="1" as="geometry"/>
                </mxCell>
                <mxCell id="gko9lDjD-mS0LvUdObCr-40" style="edgeStyle=none;html=1;exitX=0;exitY=0.5;exitDx=0;exitDy=0;entryX=1;entryY=0.5;entryDx=0;entryDy=0;endArrow=none;endFill=0;fontSize=14;" parent="1" source="gko9lDjD-mS0LvUdObCr-48" target="gko9lDjD-mS0LvUdObCr-50" edge="1">
                    <mxGeometry relative="1" as="geometry"/>
                </mxCell>
                <mxCell id="gko9lDjD-mS0LvUdObCr-41" style="edgeStyle=none;html=1;exitX=0;exitY=0.75;exitDx=0;exitDy=0;entryX=0.99;entryY=0.307;entryDx=0;entryDy=0;entryPerimeter=0;endArrow=none;endFill=0;fontSize=14;" parent="1" source="gko9lDjD-mS0LvUdObCr-48" target="gko9lDjD-mS0LvUdObCr-51" edge="1">
                    <mxGeometry relative="1" as="geometry"/>
                </mxCell>
                <mxCell id="gko9lDjD-mS0LvUdObCr-42" style="edgeStyle=none;html=1;endArrow=none;endFill=0;entryX=0;entryY=0.5;entryDx=0;entryDy=0;fontSize=14;shape=link;" parent="1" source="gko9lDjD-mS0LvUdObCr-48" target="gko9lDjD-mS0LvUdObCr-88" edge="1">
                    <mxGeometry relative="1" as="geometry">
                        <mxPoint x="460" y="870" as="targetPoint"/>
                    </mxGeometry>
                </mxCell>
                <mxCell id="gko9lDjD-mS0LvUdObCr-43" value="M" style="edgeLabel;html=1;align=center;verticalAlign=middle;resizable=0;points=[];fontSize=14;" parent="gko9lDjD-mS0LvUdObCr-42" vertex="1" connectable="0">
                    <mxGeometry x="-0.7945" y="2" relative="1" as="geometry">
                        <mxPoint as="offset"/>
                    </mxGeometry>
                </mxCell>
                <mxCell id="gko9lDjD-mS0LvUdObCr-44" style="edgeStyle=none;html=1;endArrow=none;endFill=0;entryX=0.5;entryY=0;entryDx=0;entryDy=0;fontSize=14;exitX=0;exitY=1;exitDx=0;exitDy=0;" parent="1" source="gko9lDjD-mS0LvUdObCr-88" target="gko9lDjD-mS0LvUdObCr-89" edge="1">
                    <mxGeometry relative="1" as="geometry">
                        <mxPoint x="250" y="980" as="targetPoint"/>
                    </mxGeometry>
                </mxCell>
                <mxCell id="gko9lDjD-mS0LvUdObCr-45" style="edgeStyle=none;html=1;endArrow=none;endFill=0;entryX=0.5;entryY=0;entryDx=0;entryDy=0;fontSize=14;" parent="1" source="gko9lDjD-mS0LvUdObCr-88" target="gko9lDjD-mS0LvUdObCr-92" edge="1">
                    <mxGeometry relative="1" as="geometry">
                        <mxPoint x="220" y="980" as="targetPoint"/>
                    </mxGeometry>
                </mxCell>
                <mxCell id="gko9lDjD-mS0LvUdObCr-46" style="edgeStyle=none;html=1;endArrow=none;endFill=0;entryX=0.5;entryY=0;entryDx=0;entryDy=0;exitX=0.5;exitY=1;exitDx=0;exitDy=0;fontSize=14;shape=link;" parent="1" source="gko9lDjD-mS0LvUdObCr-48" target="gko9lDjD-mS0LvUdObCr-94" edge="1">
                    <mxGeometry relative="1" as="geometry">
                        <mxPoint x="253" y="1060" as="targetPoint"/>
                    </mxGeometry>
                </mxCell>
                <mxCell id="gko9lDjD-mS0LvUdObCr-47" value="1" style="edgeLabel;html=1;align=center;verticalAlign=middle;resizable=0;points=[];fontSize=14;" parent="gko9lDjD-mS0LvUdObCr-46" vertex="1" connectable="0">
                    <mxGeometry x="-0.7135" y="3" relative="1" as="geometry">
                        <mxPoint x="-9" y="14" as="offset"/>
                    </mxGeometry>
                </mxCell>
                <mxCell id="gko9lDjD-mS0LvUdObCr-48" value="aircraft" style="rounded=0;whiteSpace=wrap;html=1;fontSize=14;" parent="1" vertex="1">
                    <mxGeometry x="280" y="870" width="70" height="30" as="geometry"/>
                </mxCell>
                <mxCell id="gko9lDjD-mS0LvUdObCr-49" value="&lt;u style=&quot;font-size: 14px;&quot;&gt;id_num&lt;/u&gt;" style="ellipse;whiteSpace=wrap;html=1;fontSize=14;" parent="1" vertex="1">
                    <mxGeometry x="130" y="775" width="60" height="30" as="geometry"/>
                </mxCell>
                <mxCell id="gko9lDjD-mS0LvUdObCr-50" value="capacity" style="ellipse;whiteSpace=wrap;html=1;fontSize=14;" parent="1" vertex="1">
                    <mxGeometry x="130" y="815" width="60" height="30" as="geometry"/>
                </mxCell>
                <mxCell id="gko9lDjD-mS0LvUdObCr-51" value="model" style="ellipse;whiteSpace=wrap;html=1;fontSize=14;" parent="1" vertex="1">
                    <mxGeometry x="130" y="855" width="60" height="30" as="geometry"/>
                </mxCell>
                <mxCell id="gko9lDjD-mS0LvUdObCr-52" value="routes" style="rounded=0;whiteSpace=wrap;html=1;fontSize=14;" parent="1" vertex="1">
                    <mxGeometry x="955" y="1025" width="60" height="30" as="geometry"/>
                </mxCell>
                <mxCell id="gko9lDjD-mS0LvUdObCr-53" style="edgeStyle=none;html=1;exitX=0.5;exitY=0;exitDx=0;exitDy=0;entryX=0.398;entryY=0.964;entryDx=0;entryDy=0;entryPerimeter=0;endArrow=none;endFill=0;fontSize=14;" parent="1" source="gko9lDjD-mS0LvUdObCr-54" target="gko9lDjD-mS0LvUdObCr-52" edge="1">
                    <mxGeometry relative="1" as="geometry"/>
                </mxCell>
                <mxCell id="gko9lDjD-mS0LvUdObCr-54" value="&lt;u style=&quot;font-size: 14px;&quot;&gt;id_num&lt;/u&gt;" style="ellipse;whiteSpace=wrap;html=1;fontSize=14;" parent="1" vertex="1">
                    <mxGeometry x="955" y="1115" width="65" height="35" as="geometry"/>
                </mxCell>
                <mxCell id="gko9lDjD-mS0LvUdObCr-55" style="edgeStyle=none;html=1;exitX=0.5;exitY=0;exitDx=0;exitDy=0;entryX=0.75;entryY=1;entryDx=0;entryDy=0;endArrow=none;endFill=0;fontSize=14;" parent="1" source="gko9lDjD-mS0LvUdObCr-56" target="gko9lDjD-mS0LvUdObCr-52" edge="1">
                    <mxGeometry relative="1" as="geometry"/>
                </mxCell>
                <mxCell id="gko9lDjD-mS0LvUdObCr-56" value="origin" style="ellipse;whiteSpace=wrap;html=1;fontSize=14;" parent="1" vertex="1">
                    <mxGeometry x="1025" y="1115" width="60" height="30" as="geometry"/>
                </mxCell>
                <mxCell id="gko9lDjD-mS0LvUdObCr-57" style="edgeStyle=none;html=1;exitX=0;exitY=0.5;exitDx=0;exitDy=0;entryX=1;entryY=0.5;entryDx=0;entryDy=0;endArrow=none;endFill=0;fontSize=14;" parent="1" source="gko9lDjD-mS0LvUdObCr-58" target="gko9lDjD-mS0LvUdObCr-52" edge="1">
                    <mxGeometry relative="1" as="geometry"/>
                </mxCell>
                <mxCell id="gko9lDjD-mS0LvUdObCr-58" value="destination" style="ellipse;whiteSpace=wrap;html=1;fontSize=14;" parent="1" vertex="1">
                    <mxGeometry x="1070" y="1030" width="80" height="35" as="geometry"/>
                </mxCell>
                <mxCell id="gko9lDjD-mS0LvUdObCr-59" style="edgeStyle=none;html=1;exitX=0;exitY=0.5;exitDx=0;exitDy=0;entryX=1;entryY=1;entryDx=0;entryDy=0;endArrow=none;endFill=0;fontSize=14;" parent="1" source="gko9lDjD-mS0LvUdObCr-60" target="gko9lDjD-mS0LvUdObCr-52" edge="1">
                    <mxGeometry relative="1" as="geometry"/>
                </mxCell>
                <mxCell id="gko9lDjD-mS0LvUdObCr-60" value="distance" style="ellipse;whiteSpace=wrap;html=1;fontSize=14;" parent="1" vertex="1">
                    <mxGeometry x="1070" y="1075" width="70" height="35" as="geometry"/>
                </mxCell>
                <mxCell id="gko9lDjD-mS0LvUdObCr-61" style="edgeStyle=none;html=1;exitX=1;exitY=0;exitDx=0;exitDy=0;entryX=0;entryY=1;entryDx=0;entryDy=0;endArrow=none;endFill=0;fontSize=14;" parent="1" source="gko9lDjD-mS0LvUdObCr-62" target="gko9lDjD-mS0LvUdObCr-52" edge="1">
                    <mxGeometry relative="1" as="geometry"/>
                </mxCell>
                <mxCell id="gko9lDjD-mS0LvUdObCr-62" value="classification" style="ellipse;whiteSpace=wrap;html=1;fontSize=14;" parent="1" vertex="1">
                    <mxGeometry x="850" y="1115" width="95" height="30" as="geometry"/>
                </mxCell>
                <mxCell id="gko9lDjD-mS0LvUdObCr-63" style="edgeStyle=none;html=1;exitX=0.25;exitY=1;exitDx=0;exitDy=0;entryX=1;entryY=0;entryDx=0;entryDy=0;endArrow=none;endFill=0;fontSize=14;" parent="1" source="gko9lDjD-mS0LvUdObCr-66" target="gko9lDjD-mS0LvUdObCr-67" edge="1">
                    <mxGeometry relative="1" as="geometry"/>
                </mxCell>
                <mxCell id="gko9lDjD-mS0LvUdObCr-64" style="edgeStyle=none;html=1;exitX=0.586;exitY=-0.067;exitDx=0;exitDy=0;entryX=0.306;entryY=1;entryDx=0;entryDy=0;endArrow=none;endFill=0;exitPerimeter=0;entryPerimeter=0;fontSize=14;" parent="1" source="gko9lDjD-mS0LvUdObCr-66" target="gko9lDjD-mS0LvUdObCr-73" edge="1">
                    <mxGeometry relative="1" as="geometry"/>
                </mxCell>
                <mxCell id="gko9lDjD-mS0LvUdObCr-65" style="edgeStyle=none;html=1;exitX=1;exitY=0.75;exitDx=0;exitDy=0;endArrow=none;endFill=0;entryX=0;entryY=0;entryDx=0;entryDy=0;fontSize=14;shape=link;" parent="1" source="gko9lDjD-mS0LvUdObCr-66" target="gko9lDjD-mS0LvUdObCr-96" edge="1">
                    <mxGeometry relative="1" as="geometry">
                        <mxPoint x="350" y="530" as="targetPoint"/>
                    </mxGeometry>
                </mxCell>
                <mxCell id="VuSn1augy5LbkCHE8JEC-11" value="M" style="edgeLabel;html=1;align=center;verticalAlign=middle;resizable=0;points=[];fontSize=14;" vertex="1" connectable="0" parent="gko9lDjD-mS0LvUdObCr-65">
                    <mxGeometry x="-0.7247" y="-2" relative="1" as="geometry">
                        <mxPoint as="offset"/>
                    </mxGeometry>
                </mxCell>
                <mxCell id="gko9lDjD-mS0LvUdObCr-66" value="transaction" style="rounded=0;whiteSpace=wrap;html=1;fontSize=14;" parent="1" vertex="1">
                    <mxGeometry x="230" y="490" width="80" height="30" as="geometry"/>
                </mxCell>
                <mxCell id="gko9lDjD-mS0LvUdObCr-67" value="&lt;u style=&quot;font-size: 14px;&quot;&gt;id_num&lt;/u&gt;" style="ellipse;whiteSpace=wrap;html=1;fontSize=14;" parent="1" vertex="1">
                    <mxGeometry x="130" y="437.5" width="60" height="30" as="geometry"/>
                </mxCell>
                <mxCell id="gko9lDjD-mS0LvUdObCr-68" style="edgeStyle=none;html=1;entryX=0;entryY=0.75;entryDx=0;entryDy=0;endArrow=none;endFill=0;fontSize=14;" parent="1" source="gko9lDjD-mS0LvUdObCr-69" target="gko9lDjD-mS0LvUdObCr-66" edge="1">
                    <mxGeometry relative="1" as="geometry"/>
                </mxCell>
                <mxCell id="gko9lDjD-mS0LvUdObCr-69" value="date" style="ellipse;whiteSpace=wrap;html=1;fontSize=14;" parent="1" vertex="1">
                    <mxGeometry x="110" y="475" width="60" height="30" as="geometry"/>
                </mxCell>
                <mxCell id="gko9lDjD-mS0LvUdObCr-70" value="" style="edgeStyle=none;html=1;endArrow=none;endFill=0;fontSize=14;" parent="1" source="gko9lDjD-mS0LvUdObCr-71" target="gko9lDjD-mS0LvUdObCr-66" edge="1">
                    <mxGeometry relative="1" as="geometry"/>
                </mxCell>
                <mxCell id="gko9lDjD-mS0LvUdObCr-71" value="description" style="ellipse;whiteSpace=wrap;html=1;fontSize=14;" parent="1" vertex="1">
                    <mxGeometry x="170" y="400" width="80" height="37.5" as="geometry"/>
                </mxCell>
                <mxCell id="gko9lDjD-mS0LvUdObCr-73" value="origin" style="ellipse;whiteSpace=wrap;html=1;fontSize=14;" parent="1" vertex="1">
                    <mxGeometry x="260" y="402.5" width="60" height="30" as="geometry"/>
                </mxCell>
                <mxCell id="gko9lDjD-mS0LvUdObCr-77" value="amount" style="ellipse;whiteSpace=wrap;html=1;fontSize=14;" parent="1" vertex="1">
                    <mxGeometry x="337" y="410" width="70" height="45" as="geometry"/>
                </mxCell>
                <mxCell id="gko9lDjD-mS0LvUdObCr-78" value="" style="edgeStyle=none;html=1;endArrow=none;endFill=0;fontSize=14;exitX=0;exitY=1;exitDx=0;exitDy=0;" parent="1" source="gko9lDjD-mS0LvUdObCr-77" target="gko9lDjD-mS0LvUdObCr-66" edge="1">
                    <mxGeometry relative="1" as="geometry">
                        <mxPoint x="344.0913927662441" y="488.68172144675145" as="sourcePoint"/>
                    </mxGeometry>
                </mxCell>
                <mxCell id="gko9lDjD-mS0LvUdObCr-80" style="edgeStyle=none;html=1;exitX=1;exitY=0.5;exitDx=0;exitDy=0;entryX=0;entryY=0.75;entryDx=0;entryDy=0;endArrow=none;endFill=0;fontSize=14;shape=link;" parent="1" source="gko9lDjD-mS0LvUdObCr-82" target="gko9lDjD-mS0LvUdObCr-23" edge="1">
                    <mxGeometry relative="1" as="geometry"/>
                </mxCell>
                <mxCell id="gko9lDjD-mS0LvUdObCr-81" value="M" style="edgeLabel;html=1;align=center;verticalAlign=middle;resizable=0;points=[];fontSize=14;" parent="gko9lDjD-mS0LvUdObCr-80" vertex="1" connectable="0">
                    <mxGeometry x="0.6768" y="-1" relative="1" as="geometry">
                        <mxPoint as="offset"/>
                    </mxGeometry>
                </mxCell>
                <mxCell id="gko9lDjD-mS0LvUdObCr-82" value="works" style="rhombus;whiteSpace=wrap;html=1;fillColor=none;fontSize=14;" parent="1" vertex="1">
                    <mxGeometry x="440" y="690" width="60" height="50" as="geometry"/>
                </mxCell>
                <mxCell id="gko9lDjD-mS0LvUdObCr-83" value="" style="edgeStyle=none;html=1;endArrow=none;endFill=0;fontSize=14;shape=link;" parent="1" source="gko9lDjD-mS0LvUdObCr-85" target="gko9lDjD-mS0LvUdObCr-48" edge="1">
                    <mxGeometry relative="1" as="geometry"/>
                </mxCell>
                <mxCell id="gko9lDjD-mS0LvUdObCr-84" value="M" style="edgeLabel;html=1;align=center;verticalAlign=middle;resizable=0;points=[];fontSize=14;" parent="gko9lDjD-mS0LvUdObCr-83" vertex="1" connectable="0">
                    <mxGeometry x="0.4894" relative="1" as="geometry">
                        <mxPoint as="offset"/>
                    </mxGeometry>
                </mxCell>
                <mxCell id="gko9lDjD-mS0LvUdObCr-85" value="owns" style="rhombus;whiteSpace=wrap;html=1;rounded=0;fontSize=14;" parent="1" vertex="1">
                    <mxGeometry x="285" y="755" width="65" height="45" as="geometry"/>
                </mxCell>
                <mxCell id="gko9lDjD-mS0LvUdObCr-86" style="edgeStyle=none;html=1;exitX=1;exitY=0.5;exitDx=0;exitDy=0;entryX=0;entryY=0.5;entryDx=0;entryDy=0;endArrow=none;endFill=0;fontSize=14;" parent="1" source="gko9lDjD-mS0LvUdObCr-88" target="gko9lDjD-mS0LvUdObCr-52" edge="1">
                    <mxGeometry relative="1" as="geometry"/>
                </mxCell>
                <mxCell id="gko9lDjD-mS0LvUdObCr-87" value="M" style="edgeLabel;html=1;align=center;verticalAlign=middle;resizable=0;points=[];fontSize=14;" parent="gko9lDjD-mS0LvUdObCr-86" vertex="1" connectable="0">
                    <mxGeometry x="0.6411" y="1" relative="1" as="geometry">
                        <mxPoint as="offset"/>
                    </mxGeometry>
                </mxCell>
                <mxCell id="VuSn1augy5LbkCHE8JEC-4" style="edgeStyle=none;html=1;entryX=0.5;entryY=1;entryDx=0;entryDy=0;endArrow=none;endFill=0;" edge="1" parent="1" source="gko9lDjD-mS0LvUdObCr-88" target="VuSn1augy5LbkCHE8JEC-3">
                    <mxGeometry relative="1" as="geometry"/>
                </mxCell>
                <mxCell id="gko9lDjD-mS0LvUdObCr-88" value="assigned" style="rhombus;whiteSpace=wrap;html=1;fillColor=none;fontSize=14;" parent="1" vertex="1">
                    <mxGeometry x="480" y="852.5" width="100" height="65" as="geometry"/>
                </mxCell>
                <mxCell id="gko9lDjD-mS0LvUdObCr-89" value="departure_date_time" style="ellipse;whiteSpace=wrap;html=1;fontSize=14;" parent="1" vertex="1">
                    <mxGeometry x="320" y="942.5" width="140" height="37.5" as="geometry"/>
                </mxCell>
                <mxCell id="gko9lDjD-mS0LvUdObCr-90" style="edgeStyle=none;html=1;entryX=0.416;entryY=0.907;entryDx=0;entryDy=0;endArrow=none;endFill=0;fontSize=14;entryPerimeter=0;" parent="1" source="gko9lDjD-mS0LvUdObCr-91" target="gko9lDjD-mS0LvUdObCr-88" edge="1">
                    <mxGeometry relative="1" as="geometry"/>
                </mxCell>
                <mxCell id="gko9lDjD-mS0LvUdObCr-91" value="arrival_date_time" style="ellipse;whiteSpace=wrap;html=1;fontSize=14;" parent="1" vertex="1">
                    <mxGeometry x="394" y="1010" width="125" height="35" as="geometry"/>
                </mxCell>
                <mxCell id="gko9lDjD-mS0LvUdObCr-92" value="traveling_time" style="ellipse;whiteSpace=wrap;html=1;fontSize=14;" parent="1" vertex="1">
                    <mxGeometry x="560" y="957.5" width="110" height="40" as="geometry"/>
                </mxCell>
                <mxCell id="gko9lDjD-mS0LvUdObCr-93" value="1" style="edgeStyle=none;html=1;endArrow=none;endFill=0;entryX=0.4;entryY=-0.046;entryDx=0;entryDy=0;entryPerimeter=0;fontSize=14;" parent="1" source="gko9lDjD-mS0LvUdObCr-94" target="gko9lDjD-mS0LvUdObCr-95" edge="1">
                    <mxGeometry x="0.5045" y="1" relative="1" as="geometry">
                        <mxPoint x="290" y="1055" as="targetPoint"/>
                        <mxPoint as="offset"/>
                    </mxGeometry>
                </mxCell>
                <mxCell id="gko9lDjD-mS0LvUdObCr-94" value="has" style="rhombus;whiteSpace=wrap;html=1;rounded=0;fontSize=14;" parent="1" vertex="1">
                    <mxGeometry x="240" y="980" width="65" height="45" as="geometry"/>
                </mxCell>
                <mxCell id="LHydGvx36gCkSHr-igUL-2" style="edgeStyle=none;html=1;fontSize=14;endArrow=none;endFill=0;entryX=1;entryY=0;entryDx=0;entryDy=0;" parent="1" source="gko9lDjD-mS0LvUdObCr-95" target="LHydGvx36gCkSHr-igUL-3" edge="1">
                    <mxGeometry relative="1" as="geometry">
                        <mxPoint x="220" y="1170" as="targetPoint"/>
                    </mxGeometry>
                </mxCell>
                <mxCell id="LHydGvx36gCkSHr-igUL-6" style="edgeStyle=none;html=1;entryX=0.5;entryY=0;entryDx=0;entryDy=0;fontSize=14;endArrow=none;endFill=0;" parent="1" source="gko9lDjD-mS0LvUdObCr-95" target="LHydGvx36gCkSHr-igUL-4" edge="1">
                    <mxGeometry relative="1" as="geometry"/>
                </mxCell>
                <mxCell id="LHydGvx36gCkSHr-igUL-7" style="edgeStyle=none;html=1;entryX=0.5;entryY=0;entryDx=0;entryDy=0;fontSize=14;endArrow=none;endFill=0;" parent="1" source="gko9lDjD-mS0LvUdObCr-95" target="LHydGvx36gCkSHr-igUL-5" edge="1">
                    <mxGeometry relative="1" as="geometry"/>
                </mxCell>
                <mxCell id="gko9lDjD-mS0LvUdObCr-95" value="crew" style="rounded=0;whiteSpace=wrap;html=1;fontSize=14;" parent="1" vertex="1">
                    <mxGeometry x="250" y="1080" width="70" height="30" as="geometry"/>
                </mxCell>
                <mxCell id="gko9lDjD-mS0LvUdObCr-96" value="tracks" style="rhombus;whiteSpace=wrap;html=1;fillColor=none;fontSize=14;" parent="1" vertex="1">
                    <mxGeometry x="394" y="530" width="60" height="50" as="geometry"/>
                </mxCell>
                <mxCell id="LHydGvx36gCkSHr-igUL-3" value="Pilot" style="ellipse;whiteSpace=wrap;html=1;fontSize=14;" parent="1" vertex="1">
                    <mxGeometry x="180" y="1155" width="60" height="30" as="geometry"/>
                </mxCell>
                <mxCell id="LHydGvx36gCkSHr-igUL-4" value="Assistant_pilot" style="ellipse;whiteSpace=wrap;html=1;fontSize=14;" parent="1" vertex="1">
                    <mxGeometry x="240" y="1185" width="105" height="40" as="geometry"/>
                </mxCell>
                <mxCell id="LHydGvx36gCkSHr-igUL-5" value="hostesses" style="ellipse;whiteSpace=wrap;html=1;fontSize=14;" parent="1" vertex="1">
                    <mxGeometry x="334" y="1139" width="76" height="31" as="geometry"/>
                </mxCell>
                <mxCell id="LHydGvx36gCkSHr-igUL-8" value="" style="ellipse;whiteSpace=wrap;html=1;fontSize=14;fillColor=none;" parent="1" vertex="1">
                    <mxGeometry x="328" y="1134" width="86" height="41" as="geometry"/>
                </mxCell>
                <mxCell id="VuSn1augy5LbkCHE8JEC-3" value="passenger_price" style="ellipse;whiteSpace=wrap;html=1;fontSize=14;" vertex="1" parent="1">
                    <mxGeometry x="500" y="1045" width="120" height="42.5" as="geometry"/>
                </mxCell>
                <mxCell id="VuSn1augy5LbkCHE8JEC-7" value="suppose there may be some crews that&lt;br&gt;don't have air crafts" style="text;html=1;align=center;verticalAlign=middle;resizable=0;points=[];autosize=1;strokeColor=none;fillColor=none;fontSize=14;" vertex="1" parent="1">
                    <mxGeometry x="-340" y="1012.5" width="270" height="50" as="geometry"/>
                </mxCell>
                <mxCell id="VuSn1augy5LbkCHE8JEC-8" value="suppose there may be some routes that&lt;br&gt;don't have air crafts assigned" style="text;html=1;align=center;verticalAlign=middle;resizable=0;points=[];autosize=1;strokeColor=none;fillColor=none;fontSize=14;" vertex="1" parent="1">
                    <mxGeometry x="-340" y="957.5" width="270" height="50" as="geometry"/>
                </mxCell>
            </root>
        </mxGraphModel>
    </diagram>
</mxfile>